<?xml version="1.0" encoding="UTF-8" standalone="no"?>
<!-- Created with Inkscape (http://www.inkscape.org/) -->

<svg
   xmlns:dc="http://purl.org/dc/elements/1.1/"
   xmlns:cc="http://creativecommons.org/ns#"
   xmlns:rdf="http://www.w3.org/1999/02/22-rdf-syntax-ns#"
   xmlns:svg="http://www.w3.org/2000/svg"
   xmlns="http://www.w3.org/2000/svg"
   xmlns:xlink="http://www.w3.org/1999/xlink"
   xmlns:sodipodi="http://sodipodi.sourceforge.net/DTD/sodipodi-0.dtd"
   xmlns:inkscape="http://www.inkscape.org/namespaces/inkscape"
   id="svg2"
   version="1.1"
   inkscape:version="0.91 r13725"
   width="1052.3625"
   height="744.095"
   xml:space="preserve"
   sodipodi:docname="P28.svg"><metadata
     id="metadata8"><rdf:RDF><cc:Work
         rdf:about=""><dc:format>image/svg+xml</dc:format><dc:type
           rdf:resource="http://purl.org/dc/dcmitype/StillImage" /><dc:title /></cc:Work></rdf:RDF></metadata><defs
     id="defs6"><clipPath
       clipPathUnits="userSpaceOnUse"
       id="clipPath80"><path
         inkscape:connector-curvature="0"
         d="m 185.614,45.4094 573.654,0 0,-4 -573.654,0 0,4 z"
         id="path82" /></clipPath><linearGradient
       inkscape:collect="always"
       xlink:href="#linearGradient84"
       id="linearGradient3322"
       gradientUnits="userSpaceOnUse"
       gradientTransform="matrix(-571.654,0,0,571.654,758.268,552.8666)"
       spreadMethod="pad"
       x1="1.3236637"
       y1="-0.96736705"
       x2="2.3275704"
       y2="-0.96776313" /><linearGradient
       x1="0"
       y1="0"
       x2="1"
       y2="0"
       gradientUnits="userSpaceOnUse"
       gradientTransform="matrix(-571.654,0,0,571.654,758.268,552.8666)"
       spreadMethod="pad"
       id="linearGradient84"><stop
         style="stop-opacity:1;stop-color:#47ae90"
         offset="0"
         id="stop86" /><stop
         style="stop-opacity:1;stop-color:#4c4696"
         offset="1"
         id="stop88" /></linearGradient></defs><sodipodi:namedview
     pagecolor="#ffffff"
     bordercolor="#666666"
     borderopacity="1"
     objecttolerance="10"
     gridtolerance="10"
     guidetolerance="10"
     inkscape:pageopacity="0"
     inkscape:pageshadow="2"
     inkscape:window-width="1280"
     inkscape:window-height="958"
     id="namedview4"
     showgrid="false"
     inkscape:zoom="1.2686553"
     inkscape:cx="746.85585"
     inkscape:cy="383.0517"
     inkscape:window-x="0"
     inkscape:window-y="27"
     inkscape:window-maximized="1"
     inkscape:current-layer="g10"
     inkscape:snap-page="true" /><g
     id="g10"
     inkscape:groupmode="layer"
     inkscape:label="Memoria-Novaterra-2013"
     transform="matrix(1.25,0,0,-1.25,0,744.095)"><text
       id="text62"
       x="806.78412"
       y="-31.013985"
       style="font-size:12.80000019px;font-style:normal;font-variant:normal;font-weight:bold;font-stretch:normal;text-align:end;line-height:125%;writing-mode:lr-tb;text-anchor:end;font-family:Sans;-inkscape-font-specification:Sans Bold"
       sodipodi:linespacing="125%"
       transform="scale(1,-1)"><tspan
         style="font-size:12.80000019px;font-style:normal;font-variant:normal;font-weight:bold;font-stretch:normal;text-align:end;line-height:125%;writing-mode:lr-tb;text-anchor:end;fill:#47ae90;fill-opacity:1;fill-rule:nonzero;stroke:none;font-family:Sans;-inkscape-font-specification:Sans Bold"
         x="806.78412"
         y="-31.013985"
         id="tspan64">28</tspan></text>
<g
       id="g76"
       transform="matrix(1.3702156,0,0,1,-226.57452,0)"><g
         id="g78" /><g
         id="g90"><g
           style="opacity:0.60000598"
           id="g92"
           clip-path="url(#clipPath80)"><g
             id="g94"
             transform="translate(758.2677,43.4094)"><path
               inkscape:connector-curvature="0"
               id="path96-3"
               style="fill:none;stroke:url(#linearGradient3322);stroke-width:2;stroke-linecap:butt;stroke-linejoin:miter;stroke-miterlimit:4;stroke-opacity:1;stroke-dasharray:none"
               d="M 0,0 -571.654,0" /></g></g></g></g><text
       xml:space="preserve"
       style="font-size:11.2px;font-style:normal;font-variant:normal;font-weight:normal;font-stretch:normal;text-align:start;line-height:100%;letter-spacing:0px;word-spacing:-0.00800000000000000px;writing-mode:lr;text-anchor:start;fill:#4c4696;fill-opacity:1;stroke:none;font-family:Sans;-inkscape-font-specification:Sans"
       x="33.178711"
       y="-29.93589"
       id="text4602"
       sodipodi:linespacing="100%"
       transform="scale(1,-1)"><tspan
         sodipodi:role="line"
         id="tspan3102">3. Espai Novaterra. Un nuevo espacio al servicio de la inclusión</tspan></text>
<path
       style="opacity:1;color:#000000;fill:#ffccaa;fill-opacity:1;fill-rule:nonzero;stroke:none;stroke-width:2.5;marker:none;visibility:visible;display:inline;overflow:visible;enable-background:accumulate"
       d="m -0.32619443,595.27735 -0.008807,-96.82461 310.58701143,83.25616 353.20975,-83.19139 178.42828,-0.26563 0,97.02412 z M 35.825728,578.27772 c 4.512727,0 8.17889,-3.29932 8.17889,-7.35562 0,-4.05628 -3.666164,-7.33502 -8.17889,-7.33502 -4.512724,0 -8.154904,3.27874 -8.154904,7.33502 0,4.0563 3.64218,7.35562 8.154904,7.35562 z m 39.311435,0 c 4.512725,0 8.154904,-3.29932 8.154904,-7.35562 0,-4.05628 -3.642179,-7.33502 -8.154904,-7.33502 -4.512725,0 -8.178889,3.27874 -8.178889,7.33502 0,4.0563 3.666164,7.35562 8.178889,7.35562 z m 39.287447,0 c 4.51274,0 8.1789,-3.29932 8.1789,-7.35562 0,-4.05628 -3.66616,-7.33502 -8.1789,-7.33502 -4.51272,0 -8.17888,3.27874 -8.17888,7.33502 0,4.0563 3.66616,7.35562 8.17888,7.35562 z m 39.28745,0 c 4.51271,0 8.1789,-3.29932 8.1789,-7.35562 0,-4.05628 -3.66619,-7.33502 -8.1789,-7.33502 -4.51273,0 -8.1549,3.27874 -8.1549,7.33502 0,4.0563 3.64217,7.35562 8.1549,7.35562 z m 39.31144,0 c 4.51273,0 8.1549,-3.29932 8.1549,-7.35562 0,-4.05628 -3.64217,-7.33502 -8.1549,-7.33502 -4.51272,0 -8.17889,3.27874 -8.17889,7.33502 0,4.0563 3.66617,7.35562 8.17889,7.35562 z m 39.28745,0 c 4.51271,0 8.17889,-3.29932 8.17889,-7.35562 0,-4.05628 -3.66618,-7.33502 -8.17889,-7.33502 -4.51273,0 -8.17889,3.27874 -8.17889,7.33502 0,4.0563 3.66616,7.35562 8.17889,7.35562 z m 39.28745,0 c 4.51274,0 8.17889,-3.29932 8.17889,-7.35562 0,-4.05628 -3.66615,-7.33502 -8.17889,-7.33502 -4.51272,0 -8.15491,3.27874 -8.15491,7.33502 0,4.0563 3.64219,7.35562 8.15491,7.35562 z m 39.31144,0 c 4.51274,0 8.1549,-3.29932 8.1549,-7.35562 0,-4.05628 -3.64216,-7.33502 -8.1549,-7.33502 -4.51273,0 -8.1789,3.27874 -8.1789,7.33502 0,4.0563 3.66617,7.35562 8.1789,7.35562 z m 39.28744,0 c 4.51272,0 8.1789,-3.29932 8.1789,-7.35562 0,-4.05628 -3.66618,-7.33502 -8.1789,-7.33502 -4.51272,0 -8.17888,3.27874 -8.17888,7.33502 0,4.0563 3.66616,7.35562 8.17888,7.35562 z m 39.28745,0 c 4.51272,0 8.17889,-3.29932 8.17889,-7.35562 0,-4.05628 -3.66617,-7.33502 -8.17889,-7.33502 -4.51273,0 -8.1549,3.27874 -8.1549,7.33502 0,4.0563 3.64218,7.35562 8.1549,7.35562 z m 39.31144,0 c 4.51272,0 8.17889,-3.29932 8.17889,-7.35562 0,-4.05628 -3.66617,-7.33502 -8.17889,-7.33502 -4.51272,0 -8.17888,3.27874 -8.17888,7.33502 0,4.0563 3.66616,7.35562 8.17888,7.35562 z m 39.28745,0 c 4.51272,0 8.17889,-3.29932 8.17889,-7.35562 0,-4.05628 -3.66617,-7.33502 -8.17889,-7.33502 -4.51272,0 -8.15491,3.27874 -8.15491,7.33502 0,4.0563 3.64219,7.35562 8.15491,7.35562 z m 39.31144,0 c 4.51274,0 8.1549,-3.29932 8.1549,-7.35562 0,-4.05628 -3.64216,-7.33502 -8.1549,-7.33502 -4.51272,0 -8.1789,3.27874 -8.1789,7.33502 0,4.0563 3.66618,7.35562 8.1789,7.35562 z m 39.28744,0 c 4.51275,0 8.1789,-3.29932 8.1789,-7.35562 0,-4.05628 -3.66616,-7.33502 -8.1789,-7.33502 -4.51272,0 -8.17888,3.27874 -8.17888,7.33502 0,4.0563 3.66616,7.35562 8.17888,7.35562 z m 39.28745,0 c 4.51272,0 8.1789,-3.29932 8.1789,-7.35562 0,-4.05628 -3.66618,-7.33502 -8.1789,-7.33502 -4.51272,0 -8.1549,3.27874 -8.1549,7.33502 0,4.0563 3.64218,7.35562 8.1549,7.35562 z m 39.31144,0 c 4.51272,0 8.1549,-3.29932 8.1549,-7.35562 0,-4.05628 -3.64218,-7.33502 -8.1549,-7.33502 -4.51272,0 -8.17888,3.27874 -8.17888,7.33502 0,4.0563 3.66616,7.35562 8.17888,7.35562 z m -598.737862,-15.24694 17.628984,0 0,-0.0412 1.007371,0.0206 0.983385,-0.98898 8.922425,-9.14816 9.641975,9.04514 0.935415,0.86537 0.167896,0 0,0.24724 17.652969,0 0,-0.0412 1.00737,0.0206 0.959401,-0.98899 8.922425,-9.14816 9.641976,9.04514 0.93541,0.86537 0.1679,0 0,0.24724 17.65297,0 0,-0.0412 1.00737,0.0206 0.9594,-0.98899 8.94641,-9.16877 9.64197,9.06575 0.91143,0.86537 0.19189,0 0,0.24724 17.62898,0 0,-0.0412 1.00737,0.0206 0.98338,-0.98899 8.92243,-9.14816 9.64197,9.04514 0.93542,0.86537 0.1679,0 0,0.24724 17.65297,0 0,-0.0412 1.00736,0.0206 0.9594,-0.98899 8.92243,-9.14816 9.64197,9.04514 0.93542,0.86537 0.16789,0 0,0.24724 17.65298,0 0,-0.0412 1.00736,0.0206 0.95941,-0.98899 8.94641,-9.16877 9.64197,9.06575 0.91143,0.86537 0.19188,0 0,0.24724 17.65297,0 0,-0.0412 0.98338,0.0206 0.98339,-0.98899 8.92242,-9.14816 9.64198,9.04514 0.93542,0.86537 0.16789,0 0,0.24724 17.65297,0 0,-0.0412 1.00737,0.0206 0.95941,-0.98898 8.92241,-9.14817 9.64198,9.04514 0.93541,0.86537 0.1679,0 0,0.24725 17.65297,0 0,-0.0412 1.00737,0.0206 0.9594,-0.98898 8.94641,-9.16878 9.64197,9.06576 0.91143,0.86536 0.19189,0 0,0.24725 17.65297,0 0,-0.0412 0.98339,0.0206 0.98337,-0.98898 8.92243,-9.14817 9.64197,9.04515 0.93542,0.86536 0.1679,0 0,0.24725 17.65297,0 0,-0.0412 1.00736,0.0206 0.95941,-0.98898 8.94641,-9.16877 9.64197,9.06575 0.91143,0.86536 0.16789,0 0,0.24725 17.65298,0 0,-0.0412 1.00736,0.0206 0.95941,-0.98898 8.94641,-9.16877 9.64197,9.06575 0.91143,0.86536 0.19188,0 0,0.24725 17.65297,0 0,-0.0412 1.00737,0.0206 0.95941,-0.98898 8.92241,-9.14817 9.64198,9.04515 0.93542,0.86537 0.16789,0 0,0.24724 17.65297,0 0,-0.0412 1.00737,0.0206 0.95941,-0.98898 8.9464,-9.16877 9.64198,9.06575 0.91142,0.86537 0.19189,0 0,0.24724 17.62898,0 0,-0.0412 1.00738,0.0206 0.95939,-0.98898 8.94641,-9.16877 9.64197,9.06575 0.93542,0.86537 0.1679,0 0,0.24724 17.65297,0 0,-0.0412 1.00736,0.0206 0.95941,-0.98899 10.69731,-10.96132 c 1.07062,-1.1001 0.89639,-2.95011 -0.36575,-3.88328 -1.26213,-0.93319 -3.38462,-0.78131 -4.45524,0.31879 l -7.84309,8.05616 0,-18.37874 -0.1679,0 0.11993,-18.0697 c 0.006,-1.43957 -1.4906,-2.75443 -3.14221,-2.75984 -1.6516,-0.006 -3.15991,1.29967 -3.16585,2.73925 l -0.11992,18.09029 -4.41325,0 0.11992,-18.09029 c 0.1428,-1.50539 -1.39626,-2.96786 -3.12924,-2.97354 -1.73299,-0.006 -3.28461,1.44664 -3.15482,2.95293 l -0.11993,18.1109 -0.4797,0 0,17.71942 -8.17889,-7.6853 c -0.90211,-0.89501 -2.51151,-1.17861 -3.74166,-0.65932 -0.0159,-10e-5 -0.032,-10e-5 -0.0479,0 -0.70802,0.12153 -1.3638,0.46249 -1.82286,0.94778 l -7.86708,8.05616 0,-18.37874 -0.14391,0 0.11993,-18.0697 c 0.006,-1.43957 -1.4906,-2.75443 -3.14221,-2.75984 -1.65161,-0.006 -3.15991,1.29967 -3.16586,2.73925 l -0.11992,18.09029 -4.41324,0 0.11992,-18.09029 c 0.1428,-1.50539 -1.39626,-2.96786 -3.12924,-2.97354 -1.73299,-0.006 -3.28461,1.44664 -3.15482,2.95293 l -0.14392,18.1109 -0.45571,0 0,17.71942 -8.1789,-7.6853 c -0.90504,-0.90421 -2.53019,-1.18876 -3.76564,-0.65932 -0.71645,0.117 -1.38187,0.45849 -1.84685,0.94778 l -7.86708,8.05616 0,-18.37874 -0.16789,0 0.11992,-18.0697 c 0.14279,-1.50537 -1.39627,-2.96784 -3.12925,-2.97352 -1.73298,-0.006 -3.28461,1.44664 -3.15482,2.95293 l -0.11993,18.09029 -4.41324,0 0.11993,-18.09029 c 0.14279,-1.50539 -1.39627,-2.96786 -3.12925,-2.97354 -1.73299,-0.006 -3.28461,1.44664 -3.15483,2.95293 l -0.14391,18.1109 -0.4797,0 0,17.71942 -8.17888,-7.6853 c -0.90212,-0.89501 -2.51152,-1.17861 -3.74167,-0.65932 -0.72489,0.11244 -1.39996,0.45444 -1.87083,0.94778 l -7.8431,8.05616 0,-18.37874 -0.16789,0 0.11992,-18.0697 c 0.006,-1.43957 -1.4906,-2.75443 -3.14221,-2.75984 -1.6516,-0.006 -3.15991,1.29967 -3.16585,2.73925 l -0.11992,18.09029 -4.41325,0 0.11993,-18.09029 c 0.14279,-1.50539 -1.39626,-2.96786 -3.12925,-2.97354 -1.73298,-0.006 -3.28461,1.44664 -3.15482,2.95293 l -0.11993,18.1109 -0.4797,0 0,17.71942 -8.17889,-7.6853 c -0.90504,-0.90421 -2.5302,-1.18876 -3.76564,-0.65932 -0.71646,0.117 -1.38187,0.45849 -1.84685,0.94778 l -7.86709,8.05616 0,-18.37874 -0.1439,0 0.11992,-18.0697 c 0.006,-1.43957 -1.4906,-2.75443 -3.14221,-2.75984 -1.6516,-0.006 -3.1599,1.29967 -3.16585,2.73925 l -0.11993,18.09029 -4.41324,0 0.11993,-18.09029 c 0.14279,-1.50539 -1.39626,-2.96786 -3.12925,-2.97354 -1.73298,-0.006 -3.28461,1.44664 -3.15483,2.95293 l -0.1439,18.1109 -0.47971,0 0,17.71942 -8.1549,-7.6853 c -0.90504,-0.90421 -2.5302,-1.18876 -3.76564,-0.65932 -0.71646,0.117 -1.38187,0.45849 -1.84685,0.94778 l -7.86708,8.05616 0,-18.37874 -0.1679,0 0.11993,-18.0697 c 0.14278,-1.50537 -1.39627,-2.96784 -3.12926,-2.97352 -1.73298,-0.006 -3.28461,1.44664 -3.15482,2.95293 l -0.11992,18.09029 -4.41325,0 0.11993,-18.09029 c 0.14279,-1.50539 -1.39627,-2.96786 -3.12925,-2.97354 -1.73298,-0.006 -3.28462,1.44664 -3.15483,2.95293 l -0.1439,18.1109 -0.47971,0 0,17.71942 -8.17889,-7.6853 c -0.90211,-0.89501 -2.5115,-1.17861 -3.74165,-0.65932 -0.72489,0.11244 -1.39996,0.45444 -1.87084,0.94778 l -7.84309,8.05616 0,-18.37874 -0.1679,0 0.11993,-18.0697 c 0.006,-1.43957 -1.4906,-2.75443 -3.14221,-2.75984 -1.65161,-0.006 -3.15991,1.29967 -3.16586,2.73925 l -0.11992,18.09029 -4.41324,0 0.11992,-18.09029 c 0.1428,-1.50539 -1.39626,-2.96786 -3.12924,-2.97354 -1.73299,-0.006 -3.28461,1.44664 -3.15482,2.95293 l -0.11993,18.1109 -0.4797,0 0,17.71942 -8.1789,-7.6853 c -0.90504,-0.90421 -2.53019,-1.18876 -3.76564,-0.65932 -0.71645,0.117 -1.38187,0.45849 -1.84685,0.94778 l -7.86708,8.05616 0,-18.37874 -0.14391,0 0.11992,-18.0697 c 0.006,-1.43957 -1.49059,-2.75443 -3.1422,-2.75984 -1.65161,-0.006 -3.15991,1.29967 -3.16586,2.73925 l -0.11992,18.09029 -4.41324,0 0.11992,-18.09029 c 0.1428,-1.50539 -1.39626,-2.96786 -3.12924,-2.97354 -1.73299,-0.006 -3.28461,1.44664 -3.15483,2.95293 l -0.14391,18.1109 -0.4797,0 0,17.71942 -8.15491,-7.6853 c -0.90504,-0.90421 -2.53019,-1.18876 -3.76564,-0.65932 -0.71646,0.117 -1.38187,0.45849 -1.84685,0.94778 l -7.86708,8.05616 0,-18.37874 -0.16789,0 0.11992,-18.0697 c 0.006,-1.43957 -1.4906,-2.75443 -3.14221,-2.75984 -1.6516,-0.006 -3.15991,1.29967 -3.16585,2.73925 l -0.096,18.09029 -4.41324,0 0.11993,-18.09029 c 0.14278,-1.50539 -1.39627,-2.96786 -3.12926,-2.97354 -1.73298,-0.006 -3.28461,1.44664 -3.15482,2.95293 l -0.14391,18.1109 -0.4797,0 0,17.71942 -8.17889,-7.6853 c -0.90211,-0.89501 -2.51151,-1.17861 -3.74166,-0.65932 -0.72489,0.11244 -1.39996,0.45444 -1.87083,0.94778 l -7.8431,8.05616 0,-18.37874 -0.16789,0 0.11992,-18.0697 c 0.006,-1.43957 -1.4906,-2.75443 -3.14221,-2.75984 -1.6516,-0.006 -3.15991,1.29967 -3.16585,2.73925 l -0.11993,18.09029 -4.41324,0 0.11993,-18.09029 c 0.14279,-1.50539 -1.39626,-2.96786 -3.12925,-2.97354 -1.73298,-0.006 -3.28461,1.44664 -3.15483,2.95293 l -0.1439,18.1109 -0.45572,0 0,17.71942 -8.17889,-7.6853 c -0.90504,-0.90421 -2.5302,-1.18876 -3.76564,-0.65932 -0.71646,0.117 -1.38187,0.45849 -1.84685,0.94778 l -7.86708,8.05616 0,-18.37874 -0.14392,0 0.11993,-18.0697 c 0.006,-1.43957 -1.49061,-2.75443 -3.1422,-2.75984 -1.65161,-0.006 -3.15991,1.29967 -3.16586,2.73925 l -0.11993,18.09029 -4.41324,0 0.11993,-18.09029 c 0.14279,-1.50539 -1.39627,-2.96786 -3.12925,-2.97354 -1.73298,-0.006 -3.28462,1.44664 -3.15483,2.95293 l -0.1439,18.1109 -0.47971,0 0,17.71942 -8.1549,-7.6853 c -0.90504,-0.90421 -2.5302,-1.18876 -3.76564,-0.65932 -0.71647,0.117 -1.38187,0.45849 -1.84685,0.94778 l -7.86708,8.05616 0,-18.37874 -0.1679,0 0.11993,-18.0697 c 0.006,-1.43957 -1.4906,-2.75443 -3.14221,-2.75984 -1.65161,-0.006 -3.15991,1.29967 -3.16586,2.73925 l -0.11992,18.09029 -4.38925,0 0.096,-18.09029 c 0.14279,-1.50539 -1.39626,-2.96786 -3.12924,-2.97354 -1.73299,-0.006 -3.28461,1.44664 -3.15483,2.95293 l -0.11992,18.1109 -0.47971,0 0,17.71942 -8.17889,-7.6853 c -0.9021,-0.89501 -2.5115,-1.17861 -3.74166,-0.65932 -0.72488,0.11244 -1.39995,0.45444 -1.87083,0.94778 l -7.86708,8.05616 0,-18.37874 -0.14392,0 0.11993,-18.0697 c 0.006,-1.43957 -1.49059,-2.75443 -3.1422,-2.75984 -1.65161,-0.006 -3.15991,1.29967 -3.16586,2.73925 l -0.11992,18.09029 -4.41324,0 0.11992,-18.09029 c 0.1428,-1.50539 -1.39626,-2.96786 -3.12924,-2.97354 -1.73299,-0.006 -3.28461,1.44664 -3.15483,2.95293 l -0.14391,18.1109 -0.45571,0 0,17.71942 -8.1789,-7.6853 c -0.90504,-0.90421 -2.53019,-1.18876 -3.76564,-0.65932 -0.71646,0.117 -1.38187,0.45849 -1.84685,0.94778 l -7.86708,8.05616 0,-18.37874 -0.14391,0 0.096,-18.0697 c 0.14278,-1.50537 -1.39627,-2.96784 -3.12925,-2.97352 -1.73299,-0.006 -3.28461,1.44664 -3.15483,2.95293 l -0.11992,18.09029 -4.41324,0 0.11992,-18.09029 c 0.14279,-1.50539 -1.39626,-2.96786 -3.12925,-2.97354 -1.73298,-0.006 -3.28461,1.44664 -3.15482,2.95293 l -0.14391,18.1109 -0.4797,0 0,17.71942 -8.154906,-7.6853 c -0.905046,-0.90421 -2.530201,-1.18876 -3.765648,-0.65932 -0.724885,0.11244 -1.399956,0.45444 -1.87083,0.94778 l -7.8431,8.05616 0,-18.37874 -0.167895,0 0.119925,-18.0697 c 0.0065,-1.43957 -1.490603,-2.75443 -3.142208,-2.75984 -1.651604,-0.006 -3.159909,1.29967 -3.16585,2.73925 l -0.119925,18.09029 -4.413243,0 0.119925,-18.09029 c 0.142788,-1.50539 -1.396261,-2.96786 -3.129247,-2.97354 -1.732987,-0.006 -3.284616,1.44664 -3.154826,2.95293 l -0.119925,18.1109 -0.479699,0 0,17.71942 -8.17889,-7.6853 c -0.902113,-0.89501 -2.511511,-1.17861 -3.741662,-0.65932 -0.724882,0.11244 -1.399961,0.45444 -1.870831,0.94778 l -7.867084,8.05616 0,-18.37874 -0.14391,0 0.119926,-18.0697 c 0.0064,-1.43957 -1.490605,-2.75443 -3.142208,-2.75984 -1.651605,-0.006 -3.159911,1.29967 -3.165851,2.73925 l -0.119926,18.09029 -4.413241,0 0.119925,-18.09029 c 0.142787,-1.50539 -1.396262,-2.96786 -3.129249,-2.97354 -1.732986,-0.006 -3.284614,1.44664 -3.154825,2.95293 l -0.143909,18.1109 -0.455716,0 0,17.71942 -8.178889,-7.6853 c -1.115089,-1.0878 -3.279014,-1.17291 -4.501975,-0.17706 -1.222962,0.99584 -1.272542,2.8834 -0.103148,3.927 l 11.680702,10.96131 0.91143,0.86537 0.19188,0 z"
       id="rect3336"
       inkscape:connector-curvature="0"
       sodipodi:nodetypes="cccccccsssssssssssssssssssssssssssssssssssssssssssssssssssssssssssssssssssssssssssssssscccccccccccccccccccccccccccccccccccccccccccccccccccccccccccccccccccccccccccccccccccccccccccccccccccccccccccccccccccccccccccccccccccccccccccccscccccsccccsccccccccccccsccccscccccccccccsccccscccccccccccsccccscccccccccccsccccscccccccccccsccccscccccccccccsccccscccccccccccsccccscccccccccccsccccscccccccccccsccccscccccccccccsccccscccccccccccsccccscccccccccccsccccscccccccccccsccccscccccccccccsccccscccccccccccsccccscccccsccccc" /><g
       id="g4596"
       transform="matrix(0.77353772,0,0,0.63038704,215.70964,183.97119)"><path
         inkscape:connector-curvature="0"
         id="path3413"
         d="m 789.42914,526.79098 c -0.5595,-4e-5 -1.08521,-0.0651 -1.57618,-0.19856 -0.49101,-0.11873 -0.96217,-0.34651 -1.39605,-0.67289 -0.43391,-0.31159 -0.8391,-0.73447 -1.21591,-1.26856 -0.36538,-0.53415 -0.70482,-1.19547 -1.02453,-1.99661 l -7.70074,-16.80017 c -0.15986,-0.34125 -0.2805,-0.68465 -0.34902,-1.02588 -0.0571,-0.32641 -0.0901,-0.64091 -0.0901,-0.93764 0,-0.51928 0.0767,-0.96383 0.22517,-1.33474 0.14843,-0.37093 0.35659,-0.67819 0.61921,-0.91557 0.27404,-0.22256 0.60267,-0.38874 0.97948,-0.50743 0.37681,-0.10386 0.79296,-0.15444 1.2497,-0.15443 l 8.63519,0 0,-1.87527 c 0.0228,-1.66169 0.25252,-2.93032 0.70927,-3.80568 0.46817,-0.86053 1.2131,-1.29063 2.21793,-1.29063 0.54808,0 0.99686,0.12664 1.36228,0.36403 0.36535,0.25223 0.66117,0.57014 0.87813,0.97072 0.21695,0.40059 0.37024,0.8596 0.46161,1.37887 0.10274,0.51928 0.15744,1.05435 0.16886,1.58846 l 0,2.6695 0.8106,0 c 0.8792,-10e-6 1.54725,0.22398 2.00404,0.68392 0.45671,0.45993 0.68671,1.14673 0.68674,2.05176 -3e-5,0.51928 -0.0767,0.94937 -0.22516,1.29062 -0.14847,0.35608 -0.3455,0.64167 -0.59668,0.84939 -0.25125,0.22253 -0.53598,0.37427 -0.85564,0.4633 -0.31974,0.089 -0.65933,0.13237 -1.0133,0.13237 l -0.78805,0 0,13.19305 c -3e-5,1.27591 -0.0879,2.37113 -0.24772,3.27619 -0.15985,0.90501 -0.40051,1.64238 -0.74302,2.2062 -0.34258,0.5786 -0.78077,1.00147 -1.30598,1.26856 -0.52527,0.26703 -1.1494,0.39708 -1.88017,0.39712 z m -1.64374,-5.98982 0,-14.3513 -6.42853,0 6.42853,14.3513 z"
         style="font-size:89.69837189px;font-style:normal;font-variant:normal;font-weight:bold;font-stretch:normal;line-height:100%;letter-spacing:0px;word-spacing:-0.07474866px;fill:#ffffff;fill-opacity:1;stroke:none;font-family:Nunito;-inkscape-font-specification:Sans Bold" /><path
         inkscape:connector-curvature="0"
         id="path3409"
         d="m 760.54726,516.42022 c -0.36539,-0.25224 -0.71936,-0.37835 -1.0619,-0.37833 -0.29688,-2e-5 -0.57093,0.0742 -0.82213,0.22255 -0.25121,0.16318 -0.46816,0.37089 -0.65085,0.62314 -0.18269,0.25219 -0.32542,0.54151 -0.42819,0.86793 -0.10276,0.34122 -0.15415,0.68988 -0.15415,1.04598 0,0.53409 0.10847,0.99403 0.32543,1.3798 0.22836,0.38572 0.58233,0.77147 1.06191,1.15726 l 5.68635,4.20616 c 0.33112,0.25218 0.67938,0.48216 1.04478,0.6899 0.36538,0.20768 0.74789,0.31153 1.14755,0.31157 1.01623,-4e-5 1.75842,-0.4748 2.22658,-1.42432 0.47957,-0.93473 0.71935,-2.28485 0.71937,-4.05037 l 0,-21.52045 c -2e-5,-0.72699 -0.0457,-1.41689 -0.13703,-2.0697 -0.0913,-0.63797 -0.25692,-1.20176 -0.49669,-1.69136 -0.22838,-0.48961 -0.54239,-0.87536 -0.94202,-1.15726 -0.39966,-0.28189 -0.90778,-0.42284 -1.52435,-0.42284 -1.07334,0 -1.84979,0.48961 -2.32935,1.46882 -0.47959,0.97921 -0.71937,2.44061 -0.71937,4.38421 l 0,18.69407 -2.94594,-2.33676"
         style="font-size:89.69837189px;font-style:normal;font-variant:normal;font-weight:bold;font-stretch:normal;line-height:100%;letter-spacing:0px;word-spacing:-0.07474866px;fill:#ffffff;fill-opacity:1;stroke:none;font-family:Nunito;-inkscape-font-specification:Sans Bold" /><path
         inkscape:connector-curvature="0"
         id="path3405"
         d="m 745.17228,526.61448 c -1.24461,-3e-5 -2.36194,-0.21337 -3.33249,-0.62876 -0.97057,-0.40062 -1.81363,-0.96801 -2.54441,-1.70981 -0.73078,-0.72702 -1.35507,-1.60168 -1.86889,-2.62537 -0.50241,-1.02374 -0.91872,-2.1551 -1.23843,-3.3865 -0.31972,-1.23147 -0.54959,-2.54345 -0.69802,-3.93807 -0.13702,-1.39465 -0.20266,-2.82946 -0.20265,-4.3131 -10e-6,-2.29969 0.16408,-4.45742 0.50662,-6.47519 0.34255,-2.00294 0.90106,-3.75948 1.67751,-5.2728 0.78786,-1.4985 1.81752,-2.68765 3.07355,-3.563 1.25602,-0.86052 2.80027,-1.29063 4.62721,-1.29063 1.22176,0 2.30579,0.19509 3.26494,0.59567 0.97055,0.4006 1.82487,0.97179 2.55567,1.69877 0.73075,0.72699 1.35505,1.59443 1.86889,2.60331 0.51381,1.02372 0.92995,2.14404 1.24969,3.37548 0.33111,1.23143 0.57208,2.54342 0.72054,3.93806 0.14841,1.40946 0.21389,2.87698 0.21391,4.39033 -2e-5,2.29965 -0.17521,4.45738 -0.52915,6.47518 -0.35399,2.01774 -0.92343,3.77428 -1.71128,5.2728 -0.77646,1.49847 -1.79502,2.68039 -3.05103,3.54094 -1.25603,0.87533 -2.77808,1.31266 -4.58218,1.31269 z m 0,-5.4493 c 0.78786,-3e-5 1.42293,-0.27841 1.91393,-0.82732 0.49098,-0.54899 0.87431,-1.32248 1.14836,-2.31651 0.27402,-0.97924 0.4603,-2.15393 0.55166,-3.51888 0.10276,-1.36498 0.14635,-2.85759 0.14636,-4.4896 -10e-6,-1.67655 -0.0436,-3.20187 -0.14636,-4.56683 -0.10278,-1.36497 -0.30015,-2.53244 -0.57418,-3.49681 -0.27405,-0.96439 -0.65738,-1.70518 -1.14835,-2.2393 -0.49101,-0.53411 -1.11498,-0.80525 -1.89142,-0.80525 -0.78787,0 -1.43421,0.27114 -1.92518,0.80525 -0.49101,0.53412 -0.87433,1.29317 -1.14837,2.27239 -0.26262,0.9792 -0.43764,2.14287 -0.5404,3.50785 -0.0914,1.36494 -0.14638,2.87583 -0.14636,4.5227 -2e-5,1.64685 0.055,3.14668 0.14636,4.51167 0.10276,1.36494 0.27778,2.53964 0.5404,3.51888 0.27404,0.99402 0.65736,1.76029 1.14837,2.29444 0.49097,0.54891 1.13731,0.82729 1.92518,0.82732 z"
         style="font-size:89.69837189px;font-style:normal;font-variant:normal;font-weight:bold;font-stretch:normal;line-height:100%;letter-spacing:0px;word-spacing:-0.07474866px;fill:#ffffff;fill-opacity:1;stroke:none;font-family:Nunito;-inkscape-font-specification:Sans Bold" /><path
         inkscape:connector-curvature="0"
         id="path3403"
         d="m 722.07873,520.80443 c -0.4225,-3e-5 -0.85068,-0.052 -1.28458,-0.15579 -0.4339,-0.0891 -0.86209,-0.20774 -1.28456,-0.35607 -0.41107,-0.1484 -0.81642,-0.31901 -1.21605,-0.51187 -0.39966,-0.1929 -0.77646,-0.37835 -1.13043,-0.55637 -0.29689,-0.14839 -0.57663,-0.22257 -0.83925,-0.22255 -0.29688,-2e-5 -0.57093,0.0742 -0.82213,0.22255 -0.23978,0.14834 -0.45102,0.34863 -0.63372,0.60088 -0.17127,0.26704 -0.30829,0.57118 -0.41105,0.91245 -0.10278,0.34121 -0.15416,0.70471 -0.15416,1.09049 0,0.53409 0.11991,1.05336 0.35968,1.55784 0.23979,0.50441 0.63943,0.91242 1.19893,1.22402 0.57093,0.31153 1.15897,0.59342 1.76414,0.84568 0.61659,0.26703 1.23318,0.48957 1.84978,0.66764 0.61659,0.19285 1.22177,0.34122 1.81552,0.4451 0.60517,0.10382 1.1818,0.15576 1.72989,0.15579 1.23317,-3e-5 2.36931,-0.19292 3.40839,-0.57864 1.03906,-0.37094 1.93541,-0.91989 2.68903,-1.64685 0.75359,-0.71219 1.34164,-1.60238 1.76414,-2.67058 0.43387,-1.05343 0.65083,-2.27002 0.65085,-3.64979 -2e-5,-1.55787 -0.2969,-3.14538 -0.89063,-4.76255 -0.59378,-1.6172 -1.38736,-3.21212 -2.38075,-4.78478 -0.98198,-1.55786 -2.1124,-3.07119 -3.39125,-4.54 -1.27887,-1.46882 -2.6034,-2.84862 -3.9736,-4.13939 l 7.4505,0 c 0.4453,-10e-6 0.86778,-0.052 1.26745,-0.15579 0.41103,-0.089 0.77071,-0.24481 1.07903,-0.46735 0.30827,-0.22256 0.55377,-0.51928 0.73649,-0.8902 0.19409,-0.35608 0.29114,-0.80117 0.29116,-1.33529 -2e-5,-0.96437 -0.21126,-1.69137 -0.63371,-2.18098 -0.42251,-0.4896 -1.02769,-0.7344 -1.81553,-0.7344 l -12.74292,0 c -0.41107,0 -0.79929,0.052 -1.16468,0.15578 -0.36539,0.10386 -0.6851,0.27448 -0.95914,0.51186 -0.26262,0.25222 -0.47386,0.57863 -0.63372,0.97922 -0.14844,0.41542 -0.22266,0.91986 -0.22266,1.51333 0,1.49849 0.51953,2.81894 1.55861,3.96137 l 2.50063,2.75959 c 0.34254,0.38574 0.67939,0.75666 1.01052,1.11274 0.33113,0.37091 0.61659,0.70473 0.85638,1.00147 l 0.68511,0.84568 c 0.82211,0.97921 1.57001,1.94358 2.24371,2.89314 0.67368,0.96435 1.25031,1.89164 1.72989,2.78185 0.47955,0.89018 0.85065,1.72844 1.1133,2.5148 0.26259,0.78632 0.39391,1.50589 0.39392,2.15872 -10e-6,0.57861 -0.0971,1.07562 -0.29117,1.49107 -0.19412,0.43024 -0.45674,0.78632 -0.78786,1.06823 -0.31973,0.29672 -0.69654,0.51184 -1.13043,0.6454 -0.43391,0.14834 -0.88493,0.22252 -1.35307,0.22255"
         style="font-size:89.69837189px;font-style:normal;font-variant:normal;font-weight:bold;font-stretch:normal;line-height:100%;letter-spacing:0px;word-spacing:-0.07474866px;fill:#ffffff;fill-opacity:1;stroke:none;font-family:Nunito;-inkscape-font-specification:Sans Bold" /></g><g
       id="g5387"
       transform="matrix(0.61031915,0,0,-0.5667514,175.69138,1113.8767)"
       style="fill:#ffffff"><path
         sodipodi:nodetypes="ccccccccc"
         inkscape:export-ydpi="90"
         inkscape:export-xdpi="90"
         inkscape:export-filename="/home/creawww/KGESTION/070 novaterra/logo.png"
         style="fill:#ffffff"
         d="m 870.58212,1031.5973 -3.14817,-6.0475 9.25559,0 -0.12835,-34.85666 -9.15423,-0.10679 -0.0135,-38.07661 17.19866,0.0122 0.002,79.07846 z"
         id="path3005"
         inkscape:connector-curvature="0" /><path
         inkscape:export-ydpi="90"
         inkscape:export-xdpi="90"
         inkscape:export-filename="/home/creawww/KGESTION/070 novaterra/logo.png"
         style="fill:#ffffff"
         d="m 919.06144,1009.9493 c -0.55159,0 -1.11045,0.04 -1.67434,0.1273 -3.48607,0.5394 -5.56332,2.3523 -6.66544,5.8124 -0.61897,1.9432 -0.79593,7.1974 -0.31832,9.4538 0.79105,3.7372 2.68326,6.0546 5.60868,6.8756 0.57506,0.1614 1.83167,0.2424 3.2786,0.2101 2.06921,-0.046 2.4855,-0.1176 3.5651,-0.6175 2.23203,-1.0337 3.62461,-2.8577 4.40542,-5.7678 0.34926,-1.3016 0.42655,-2.1865 0.42655,-4.7556 0,-4.5802 -0.67485,-6.8993 -2.63562,-8.9955 -1.39261,-1.4888 -3.60043,-2.3292 -5.99063,-2.3428 z m -0.11461,5.3094 c 1.26003,0.019 2.49237,0.9437 3.05582,2.6993 1.04389,3.2527 0.31795,7.594 -1.4706,8.7791 -0.89015,0.5898 -2.31734,0.6075 -3.19585,0.045 -0.34611,-0.2218 -0.89619,-0.882 -1.22235,-1.4706 -0.57838,-1.0439 -0.59206,-1.1424 -0.59206,-4.0235 0,-2.6898 0.0411,-3.0418 0.47749,-3.9279 0.70388,-1.4295 1.83576,-2.1179 2.94755,-2.1009 z"
         id="path3007"
         inkscape:connector-curvature="0" /><path
         inkscape:export-ydpi="90"
         inkscape:export-xdpi="90"
         inkscape:export-filename="/home/creawww/KGESTION/070 novaterra/logo.png"
         style="fill:#ffffff"
         d="m 891.72472,1031.9529 c -0.0784,-0.078 -0.14249,-4.94 -0.14249,-10.8038 l 0,-10.6613 2.82713,0 c 2.01547,0 2.88657,0.073 3.03416,0.2547 0.11387,0.14 1.18568,2.6331 2.38181,5.5401 2.40633,5.8482 2.48554,6.0209 2.7618,6.0209 0.11635,0 0.21497,-2.3338 0.24749,-5.8569 l 0.0541,-5.8569 2.34277,0 2.34278,0 0.0528,10.4684 c 0.0381,7.5611 -0.0113,10.5456 -0.17772,10.7462 -0.17191,0.2071 -0.8707,0.2778 -2.7474,0.2778 -2.38644,0 -2.5322,-0.024 -2.81322,-0.4584 -0.16301,-0.2521 -1.36453,-2.8877 -2.67006,-5.8569 -1.30552,-2.9692 -2.45617,-5.4842 -2.557,-5.5888 -0.10082,-0.1045 -0.2536,-0.12 -0.3395,-0.034 -0.0859,0.086 -0.20202,2.784 -0.25805,5.9962 l -0.10185,5.8403 -2.0475,0.058 c -1.12613,0.032 -2.11162,-0.01 -2.18999,-0.085 z"
         id="path3009"
         inkscape:connector-curvature="0" /><path
         inkscape:export-ydpi="90"
         inkscape:export-xdpi="90"
         inkscape:export-filename="/home/creawww/KGESTION/070 novaterra/logo.png"
         style="fill:#ffffff"
         d="m 933.58279,1031.8179 c -0.24883,-0.2999 -5.73848,-20.3383 -5.73848,-20.9467 0,-0.3741 0.14405,-0.3922 2.6956,-0.3384 l 2.6956,0.057 1.32857,6.8078 c 1.2315,6.3105 1.60879,7.6128 1.91161,6.598 0.0992,-0.3323 1.1123,-5.223 2.18633,-10.5538 0.64718,-3.2121 0.35654,-2.9539 3.32444,-2.9539 1.39634,0 2.58257,0.071 2.63599,0.1572 0.0534,0.087 -0.35782,1.7596 -0.91393,3.7179 -0.55611,1.9584 -1.88921,6.6776 -2.96244,10.4871 -1.07326,3.8096 -2.05462,6.9939 -2.1808,7.0762 -0.42215,0.2754 -4.74193,0.1816 -4.98249,-0.1083 z"
         id="path3011"
         inkscape:connector-curvature="0" /><path
         inkscape:export-ydpi="90"
         inkscape:export-xdpi="90"
         inkscape:export-filename="/home/creawww/KGESTION/070 novaterra/logo.png"
         style="fill:#ffffff"
         d="m 950.35151,1010.5095 c -1.3154,-3e-4 -1.37827,0.09 -1.52792,0.4329 -0.31519,0.7221 -5.49404,20.2559 -5.49404,20.7221 0,0.3937 0.12145,0.4202 2.41914,0.4202 2.65845,0 2.73443,-0.034 2.95396,-1.2541 0.0737,-0.4094 0.2778,-0.799 0.452,-0.8658 0.17416,-0.067 1.44257,-0.121 2.82023,-0.121 2.74892,0 2.86094,0.045 3.09402,1.2414 0.0743,0.3815 0.24042,0.7581 0.36284,0.8404 0.12245,0.082 1.3,0.1507 2.61653,0.1527 l 2.39369,0.01 -0.0191,-0.5602 c -0.0101,-0.3081 -1.17879,-5.1439 -2.59739,-10.7462 l -2.57834,-10.186 -3.1131,-0.057 c -0.76605,-0.014 -1.34409,-0.025 -1.78255,-0.025 z m 1.52787,7.1238 c 0.0605,-0.01 0.12078,0.026 0.191,0.096 0.29386,0.2939 1.52721,6.2946 1.37511,6.691 -0.1745,0.4547 -2.93988,0.4831 -3.1131,0.032 -0.11957,-0.3116 1.09905,-6.2251 1.37511,-6.6718 0.0538,-0.087 0.11139,-0.1382 0.17188,-0.1465 z"
         id="path3013"
         inkscape:connector-curvature="0" /><path
         inkscape:export-ydpi="90"
         inkscape:export-xdpi="90"
         inkscape:export-filename="/home/creawww/KGESTION/070 novaterra/logo.png"
         style="fill:#ffffff"
         d="m 964.61216,1031.8341 c -0.0538,-0.1437 -0.12082,-3.7908 -0.14898,-8.1045 l -0.0512,-7.8432 -2.34279,-0.1019 -2.34275,-0.1019 0,-2.5465 0,-2.5464 7.28296,-0.053 7.28299,-0.053 0,2.6509 0,2.6509 -2.216,0 c -1.60192,0 -2.27865,0.076 -2.44218,0.2726 -0.15501,0.1868 -0.24303,2.7354 -0.27958,8.0978 l -0.0534,7.8253 -2.29568,0.058 c -1.72383,0.043 -2.32002,-0.01 -2.39342,-0.2024 z"
         id="path3015"
         inkscape:connector-curvature="0" /><path
         inkscape:export-ydpi="90"
         inkscape:export-xdpi="90"
         inkscape:export-filename="/home/creawww/KGESTION/070 novaterra/logo.png"
         style="fill:#ffffff"
         d="m 976.26429,1031.9489 c -0.0761,-0.076 -0.13842,-4.936 -0.13842,-10.7998 l 0,-10.6613 6.92646,0 6.92645,0 0,2.5425 0,2.5426 -4.4309,0.055 -4.43087,0.055 0,1.3241 0,1.3242 3.5651,0.1019 3.56506,0.1018 0,2.4447 0,2.4446 -3.56506,0.1141 c -1.96084,0.063 -3.58803,0.1315 -3.61603,0.1528 -0.0282,0.021 -0.051,0.6313 -0.051,1.3557 0,1.0936 0.0669,1.3528 0.39406,1.5279 0.23589,0.1263 2.11876,0.2109 4.69164,0.2109 l 4.29758,0 -0.057,2.5974 -0.057,2.5975 -6.9408,0.054 c -3.81746,0.029 -7.00311,-0.01 -7.07926,-0.085 z"
         id="path3017"
         inkscape:connector-curvature="0" /><path
         inkscape:export-ydpi="90"
         inkscape:export-xdpi="90"
         inkscape:export-filename="/home/creawww/KGESTION/070 novaterra/logo.png"
         style="fill:#ffffff"
         d="m 992.42595,1010.4586 0,10.6762 c 0,5.8722 0.0619,10.7381 0.14006,10.8162 0.0782,0.078 1.15532,0.1206 2.39372,0.089 l 2.25366,-0.057 0.10184,-3.0558 c 0.056,-1.6807 0.17037,-3.1704 0.261,-3.3104 0.22154,-0.3424 3.33637,-0.338 4.01717,0.01 0.7715,0.3902 0.9776,1.0492 1.1331,3.6096 0.078,1.2886 0.2327,2.4574 0.3438,2.5975 0.1423,0.1793 0.9561,0.2546 2.7502,0.2546 l 2.5465,0 -0.14,-0.6621 c -0.2157,-1.0548 -0.3197,-2.1023 -0.5157,-5.1121 -0.164,-2.5181 -0.2389,-2.9091 -0.7067,-3.616 -0.626,-0.946 -0.6474,-1.2348 -0.1337,-1.6998 0.2138,-0.1934 0.5994,-0.8267 0.8595,-1.4069 0.4009,-0.8943 0.4738,-1.3918 0.4774,-3.2914 0,-2.0869 -0.036,-2.3249 -0.6047,-3.4632 -0.5161,-1.0322 -0.7696,-1.3016 -1.6298,-1.7316 -1.01,-0.505 -1.0716,-0.5135 -7.28296,-0.5793 l -6.26439,-0.064 z m 6.68453,5.3349 c 0.24277,0 0.51517,0.01 0.82765,0.019 1.94337,0.066 2.12747,0.1088 2.50827,0.5793 0.5759,0.7117 0.4355,2.5507 -0.2355,3.094 -0.3806,0.3081 -0.8269,0.3756 -2.55292,0.3756 -2.40864,0 -2.33776,0.066 -2.34275,-2.1518 -0.004,-1.6488 0.0959,-1.9295 1.79525,-1.9162 z"
         id="path3019"
         inkscape:connector-curvature="0" /><path
         inkscape:export-ydpi="90"
         inkscape:export-xdpi="90"
         inkscape:export-filename="/home/creawww/KGESTION/070 novaterra/logo.png"
         style="fill:#ffffff"
         d="m 1035.0224,1010.5223 c -1.1601,0.01 -1.8354,0.066 -1.9417,0.1719 -0.1203,0.1203 -1.4533,4.8578 -2.9666,10.5297 -1.5133,5.6719 -2.8599,10.352 -2.9922,10.3961 -0.4834,0.1612 -0.7021,-0.8403 -0.8912,-4.1444 -0.1918,-3.3509 -0.3967,-4.2535 -1.2351,-5.3922 -0.1901,-0.2583 -0.1084,-0.4911 0.4075,-1.2033 0.8649,-1.194 1.2478,-2.598 1.2478,-4.5836 0,-2.9889 -0.8063,-4.6414 -2.6038,-5.335 -0.8538,-0.3294 -1.6484,-0.3692 -7.0729,-0.3692 l -6.1116,0 -0.057,10.4661 c -0.038,7.5611 0.012,10.5456 0.1782,10.7462 0.304,0.3663 4.2604,0.3934 4.6219,0.032 0.1679,-0.1679 0.2483,-1.1775 0.2483,-3.234 0,-2.5416 0.045,-3.0145 0.3183,-3.1195 0.1773,-0.068 1.0417,-0.121 1.9226,-0.121 1.3678,0 1.679,0.067 2.1327,0.4584 0.659,0.5685 0.9104,1.5926 0.9167,3.7816 0.01,2.6696 -0.4736,2.4657 5.8124,2.4637 5.0774,0 5.4022,-0.026 5.5959,-0.3883 0.1132,-0.2115 0.2101,-0.566 0.2101,-0.7894 0,-0.896 0.4669,-1.0441 3.2595,-1.0441 2.8706,0 2.8116,-0.024 3.164,1.3242 l 0.2165,0.8149 2.4892,0.057 c 1.9155,0.044 2.5117,-0.01 2.5911,-0.2181 0.057,-0.1479 -1.0705,-4.9866 -2.502,-10.7526 l -2.5974,-10.4789 -3.0431,-0.057 c -0.4921,-0.01 -0.931,-0.015 -1.3178,-0.013 z m -16.3485,5.3031 c 1.6585,0.014 2.105,0.2982 2.4256,1.2732 0.3125,0.9503 0.051,1.978 -0.6239,2.451 -0.5898,0.4131 -4.3828,0.4456 -4.5391,0.038 -0.057,-0.1495 -0.077,-1.0433 -0.045,-1.9863 l 0.064,-1.7125 1.9353,-0.057 c 0.2895,-0.01 0.5461,-0.01 0.783,-0.01 z m 17.3353,1.8143 c 0.06,-0.011 0.1223,0.017 0.1846,0.083 0.2703,0.2867 1.5194,6.37 1.3815,6.7291 -0.1713,0.4465 -2.9471,0.4237 -3.1194,-0.025 -0.1279,-0.3331 1.0846,-6.1533 1.3815,-6.6336 0.055,-0.088 0.1117,-0.1413 0.1718,-0.1528 z"
         id="path3021"
         inkscape:connector-curvature="0" /><path
         inkscape:export-ydpi="90"
         inkscape:export-xdpi="90"
         inkscape:export-filename="/home/creawww/KGESTION/070 novaterra/logo.png"
         style="fill:#ffffff"
         d="m 910.31004,1006.3496 c -1.37224,-0.3863 -2.77676,-1.2817 -3.43453,-2.1897 -1.22308,-1.6884 -1.33849,-2.6885 -1.33849,-11.59945 l 0,-8.04691 2.69068,-0.0568 2.69068,-0.0567 0.0596,8.30744 c 0.0647,9.02202 0.0677,9.04692 1.22311,9.90192 0.6552,0.4848 2.14049,0.5494 2.92908,0.1273 1.17684,-0.6298 1.19488,-0.7662 1.3059,-9.87059 l 0.10187,-8.35251 2.60758,-0.0571 2.60758,-0.0571 -0.0611,8.72 c 0,0 -0.19562,2.884 -0.19562,8.7178 0,0.5542 -0.53981,1.3715 -0.53981,1.3715 -0.71277,1.4775 -1.39959,2.108 -3.00379,2.8327 -0.86074,0.3888 -1.42256,0.4635 -3.85946,0.5127 -1.87443,0.038 -3.17127,-0.032 -3.78323,-0.2045 z"
         id="path3023"
         inkscape:connector-curvature="0" /><path
         inkscape:export-ydpi="90"
         inkscape:export-xdpi="90"
         inkscape:export-filename="/home/creawww/KGESTION/070 novaterra/logo.png"
         style="fill:#ffffff"
         d="m 985.44286,1006.4063 c -1.81561,-0.4535 -3.26737,-1.6374 -3.93504,-3.2091 -0.74815,-1.7612 -0.94508,-3.7949 -0.85142,-8.79264 0.10726,-5.72229 0.35013,-6.81486 1.89735,-8.53574 1.25085,-1.39123 2.54421,-1.87335 5.40767,-2.01571 5.43717,-0.27034 7.98242,1.52542 8.27819,5.84053 l 0.1127,1.6445 -2.67746,0 -2.67746,0 0,-0.76394 c -0.003,-2.03435 -0.8262,-3.10673 -2.38476,-3.10673 -1.09355,0 -1.92637,0.70861 -2.2935,1.95138 -0.339,1.14754 -0.4982,7.58125 -0.24276,9.81145 0.3338,2.9148 0.88337,3.7516 2.49149,3.7938 1.59877,0.042 2.28485,-0.8219 2.52614,-3.1807 l 0.14066,-1.3751 2.6624,0 2.66241,0 -0.11924,1.6896 c -0.21913,3.1052 -1.21061,4.8008 -3.40451,5.8225 -1.01207,0.4713 -1.39631,0.5264 -3.97254,0.5697 -1.56862,0.026 -3.19726,-0.038 -3.61918,-0.1438 z"
         id="path3025"
         inkscape:connector-curvature="0" /><path
         inkscape:export-ydpi="90"
         inkscape:export-xdpi="90"
         inkscape:export-filename="/home/creawww/KGESTION/070 novaterra/logo.png"
         style="fill:#ffffff"
         d="m 1014.8415,984.02598 c -3.793,-0.023 -6.0256,1.24283 -7.5122,4.20173 -0.9225,1.83615 -1.2927,3.83088 -1.2924,6.98374 0,4.42155 0.736,6.96775 2.5912,8.95095 1.0782,1.1527 2.607,1.9618 4.208,2.2282 3.3662,0.56 6.3413,-0.2373 8.1679,-2.19 1.9139,-2.0461 2.6102,-4.3755 2.6229,-8.78541 0.017,-5.78 -1.4016,-9.02729 -4.6346,-10.61889 -1.1459,-0.56412 -1.5891,-0.66557 -3.3678,-0.75122 -0.2669,-0.0128 -0.5302,-0.0175 -0.783,-0.0191 z m -0.01,5.27763 c 1.9374,0 3.0979,1.47329 3.4632,4.39904 0.4693,3.75895 -0.6351,6.85925 -2.6419,7.41665 -0.3986,0.1108 -0.7653,0.1891 -0.8213,0.1783 -1.5799,-0.3058 -2.2901,-0.8333 -2.8775,-2.1391 -0.5881,-1.3072 -0.8314,-3.53924 -0.5921,-5.45585 0.3653,-2.92579 1.5322,-4.39904 3.4696,-4.39904 z"
         id="path3027"
         inkscape:connector-curvature="0" /><path
         inkscape:export-ydpi="90"
         inkscape:export-xdpi="90"
         inkscape:export-filename="/home/creawww/KGESTION/070 novaterra/logo.png"
         style="fill:#ffffff"
         d="m 891.52012,1006.0797 c -0.0779,-0.078 -0.14161,-4.9851 -0.14161,-10.90483 l 0,-10.76319 6.11159,0 6.11159,0 0,1.72656 0,1.72657 -3.31045,0.0559 -3.31044,0.056 -0.0568,2.57211 c -0.0679,3.07192 -0.39599,2.81963 3.67285,2.82369 l 2.80115,0.003 0,1.62975 0,1.62974 -2.80115,0 c -1.54063,0 -3.00572,0.058 -3.25575,0.1246 -0.45124,0.121 -0.45501,0.156 -0.5093,4.7338 l -0.0547,4.6118 -2.55769,0.057 c -1.40672,0.031 -2.6214,-0.01 -2.69928,-0.085 z"
         id="path3029"
         inkscape:connector-curvature="0" /><path
         inkscape:export-ydpi="90"
         inkscape:export-xdpi="90"
         inkscape:export-filename="/home/creawww/KGESTION/070 novaterra/logo.png"
         style="fill:#ffffff"
         d="m 925.13476,1006.0805 c -0.0784,-0.078 -0.1425,-4.9859 -0.1425,-10.90563 l 0,-10.76319 3.96465,0 3.96472,0 0.19716,0.76394 c 0.10844,0.42018 0.9033,3.74335 1.76632,7.38483 0.86302,3.64155 1.65882,6.85005 1.76843,7.13015 0.18955,0.4843 0.20752,0.4893 0.36629,0.1019 0.0918,-0.2241 0.17339,-3.7764 0.18127,-7.89412 l 0.0144,-7.4867 2.13905,0 2.13905,0 0,10.89899 0,10.89903 -3.86282,0 -3.86281,0 -0.20562,-0.764 c -0.11306,-0.4202 -0.8999,-3.6975 -1.74848,-7.2829 -1.62572,-6.86909 -1.88528,-7.76799 -2.16289,-7.49042 -0.0945,0.0945 -0.19582,3.6061 -0.22523,7.80362 l -0.0534,7.6318 -2.04751,0.058 c -1.12611,0.032 -2.11159,-0.01 -2.18999,-0.085 z"
         id="path3031"
         inkscape:connector-curvature="0" /><path
         inkscape:export-ydpi="90"
         inkscape:export-xdpi="90"
         inkscape:export-filename="/home/creawww/KGESTION/070 novaterra/logo.png"
         style="fill:#ffffff"
         d="m 944.9593,984.38249 0,10.93083 0,10.93718 5.14391,-0.089 c 4.50688,-0.077 5.30251,-0.1393 6.42352,-0.5093 3.64799,-1.204 4.41471,-3.2541 4.27814,-11.41461 -0.0749,-4.47171 -0.12129,-4.92424 -0.56024,-6.0543 -0.57939,-1.49156 -1.80374,-2.75185 -3.18948,-3.27225 -0.85109,-0.31961 -1.78718,-0.38611 -6.54451,-0.45201 l -5.55134,-0.0764 z m 6.46809,3.50143 c 0.44415,-0.003 1.00123,0.0678 1.59155,0.21645 1.15823,0.29164 1.826,1.07944 2.10086,2.47011 0.36418,1.84243 0.47426,5.26254 0.24193,7.46762 -0.26208,2.4872 -0.75928,3.6037 -1.8526,4.1507 -0.93803,0.4694 -2.95677,0.4889 -3.13217,0.032 -0.068,-0.1772 -0.12095,-3.37 -0.12095,-7.09193 0,-4.99174 0.0616,-6.82891 0.24189,-7.00923 0.15334,-0.15333 0.48533,-0.23276 0.92949,-0.23555 z"
         id="path3033"
         inkscape:connector-curvature="0" /><path
         inkscape:export-ydpi="90"
         inkscape:export-xdpi="90"
         inkscape:export-filename="/home/creawww/KGESTION/070 novaterra/logo.png"
         style="fill:#ffffff"
         d="m 998.73876,995.31067 0,-10.89899 2.64834,0 2.6484,0 0,10.89899 0,10.89903 -2.6484,0 -2.64834,0 z"
         id="path3035"
         inkscape:connector-curvature="0" /><path
         inkscape:export-ydpi="90"
         inkscape:export-xdpi="90"
         inkscape:export-filename="/home/creawww/KGESTION/070 novaterra/logo.png"
         style="fill:#ffffff"
         d="m 970.48151,984.2106 c -2.55145,-0.003 -2.91969,0.0424 -3.08761,0.35651 -0.32287,0.60409 -5.72956,21.07789 -5.61502,21.26329 0.0592,0.096 1.19977,0.1782 2.53378,0.1782 2.18948,0 2.44525,-0.039 2.63561,-0.3947 0.11598,-0.2167 0.21644,-0.5787 0.21644,-0.8022 0,-0.895 0.468,-1.044 3.24682,-1.044 2.81021,0 2.91697,0.038 3.17674,1.1204 0.25876,1.0788 0.37109,1.1205 2.96029,1.1205 1.32422,0 2.44707,-0.077 2.50193,-0.1655 0.15944,-0.258 -5.16255,-21.30303 -5.4304,-21.47334 -0.13325,-0.0847 -1.54585,-0.15753 -3.13858,-0.15916 z m 0.0382,7.22568 c 0.0459,-0.003 0.0834,0.0114 0.11458,0.0446 0.25561,0.27291 1.48321,6.51472 1.34966,6.86282 -0.18539,0.483 -2.94645,0.4776 -3.13221,-0.01 -0.14526,-0.3785 1.12101,-6.34835 1.43242,-6.75461 0.0694,-0.0905 0.15897,-0.14194 0.23555,-0.1464 z"
         id="path3037"
         inkscape:connector-curvature="0" /><path
         inkscape:export-ydpi="90"
         inkscape:export-xdpi="90"
         inkscape:export-filename="/home/creawww/KGESTION/070 novaterra/logo.png"
         style="fill:#ffffff"
         d="m 1025.3157,1005.7513 c -0.054,-0.14 -0.074,-4.93 -0.045,-10.64436 l 0.053,-10.38968 2.9632,-0.0562 2.9632,-0.0562 2.1145,5.14914 c 2.4666,6.00676 2.806,6.7333 3.0696,6.5703 0.118,-0.073 0.1959,-2.42613 0.1959,-5.91504 l 0,-5.79399 2.3428,0 2.3428,0 0,10.6953 0,10.69523 -2.745,0 -2.745,0 -0.2888,-0.5602 c -0.1589,-0.3081 -1.3164,-2.8979 -2.5723,-5.7551 -1.2559,-2.8572 -2.3807,-5.31377 -2.4995,-5.45913 -0.4628,-0.56587 -0.5516,0.39738 -0.5546,6.01943 l 0,5.755 -2.2473,0 c -1.6101,0 -2.275,-0.072 -2.3449,-0.2546 z"
         id="path3039"
         inkscape:connector-curvature="0" /><path
         inkscape:export-ydpi="90"
         inkscape:export-xdpi="90"
         inkscape:export-filename="/home/creawww/KGESTION/070 novaterra/logo.png"
         style="fill:#ffffff"
         d="m 1012.3879,982.42115 c 0,-0.21691 1.8145,-3.32613 2.1969,-3.76455 0.2586,-0.29652 0.6656,-0.35651 2.4185,-0.35651 1.1591,0 2.1074,0.0705 2.1074,0.15661 0,0.0861 -0.8955,1.04872 -1.9899,2.13906 l -1.9899,1.98244 -1.3715,0 c -0.7543,0 -1.3715,-0.0707 -1.3715,-0.15705 z"
         id="path3041"
         inkscape:connector-curvature="0" /><path
         sodipodi:nodetypes="ccccccccccc"
         inkscape:export-ydpi="90"
         inkscape:export-xdpi="90"
         inkscape:export-filename="/home/creawww/KGESTION/070 novaterra/logo.png"
         style="fill:#ffffff"
         d="m 805.8695,952.54143 60.14109,0 c 0,0 0.0455,39.07405 0.0124,58.61087 l -11.42229,-20.35753 -10.63866,-0.0451 c -0.1667,12.45833 -0.0795,34.87913 -0.0795,34.87913 l 10.55201,0.032 0.0123,-20.2483 14.26454,26.1798 -62.92758,-0.017 z"
         id="path3043"
         inkscape:connector-curvature="0" /></g><g
       transform="matrix(0.77353772,0,0,0.63038704,215.70964,183.97119)"
       id="g4641"><path
         style="font-size:89.69837189px;font-style:normal;font-variant:normal;font-weight:bold;font-stretch:normal;line-height:100%;letter-spacing:0px;word-spacing:-0.07474866px;fill:#ffffff;fill-opacity:1;stroke:none;font-family:Nunito;-inkscape-font-specification:Sans Bold"
         d="m 789.42914,526.79098 c -0.5595,-4e-5 -1.08521,-0.0651 -1.57618,-0.19856 -0.49101,-0.11873 -0.96217,-0.34651 -1.39605,-0.67289 -0.43391,-0.31159 -0.8391,-0.73447 -1.21591,-1.26856 -0.36538,-0.53415 -0.70482,-1.19547 -1.02453,-1.99661 l -7.70074,-16.80017 c -0.15986,-0.34125 -0.2805,-0.68465 -0.34902,-1.02588 -0.0571,-0.32641 -0.0901,-0.64091 -0.0901,-0.93764 0,-0.51928 0.0767,-0.96383 0.22517,-1.33474 0.14843,-0.37093 0.35659,-0.67819 0.61921,-0.91557 0.27404,-0.22256 0.60267,-0.38874 0.97948,-0.50743 0.37681,-0.10386 0.79296,-0.15444 1.2497,-0.15443 l 8.63519,0 0,-1.87527 c 0.0228,-1.66169 0.25252,-2.93032 0.70927,-3.80568 0.46817,-0.86053 1.2131,-1.29063 2.21793,-1.29063 0.54808,0 0.99686,0.12664 1.36228,0.36403 0.36535,0.25223 0.66117,0.57014 0.87813,0.97072 0.21695,0.40059 0.37024,0.8596 0.46161,1.37887 0.10274,0.51928 0.15744,1.05435 0.16886,1.58846 l 0,2.6695 0.8106,0 c 0.8792,-10e-6 1.54725,0.22398 2.00404,0.68392 0.45671,0.45993 0.68671,1.14673 0.68674,2.05176 -3e-5,0.51928 -0.0767,0.94937 -0.22516,1.29062 -0.14847,0.35608 -0.3455,0.64167 -0.59668,0.84939 -0.25125,0.22253 -0.53598,0.37427 -0.85564,0.4633 -0.31974,0.089 -0.65933,0.13237 -1.0133,0.13237 l -0.78805,0 0,13.19305 c -3e-5,1.27591 -0.0879,2.37113 -0.24772,3.27619 -0.15985,0.90501 -0.40051,1.64238 -0.74302,2.2062 -0.34258,0.5786 -0.78077,1.00147 -1.30598,1.26856 -0.52527,0.26703 -1.1494,0.39708 -1.88017,0.39712 z m -1.64374,-5.98982 0,-14.3513 -6.42853,0 6.42853,14.3513 z"
         id="path4643"
         inkscape:connector-curvature="0" /><path
         style="font-size:89.69837189px;font-style:normal;font-variant:normal;font-weight:bold;font-stretch:normal;line-height:100%;letter-spacing:0px;word-spacing:-0.07474866px;fill:#ffffff;fill-opacity:1;stroke:none;font-family:Nunito;-inkscape-font-specification:Sans Bold"
         d="m 760.54726,516.42022 c -0.36539,-0.25224 -0.71936,-0.37835 -1.0619,-0.37833 -0.29688,-2e-5 -0.57093,0.0742 -0.82213,0.22255 -0.25121,0.16318 -0.46816,0.37089 -0.65085,0.62314 -0.18269,0.25219 -0.32542,0.54151 -0.42819,0.86793 -0.10276,0.34122 -0.15415,0.68988 -0.15415,1.04598 0,0.53409 0.10847,0.99403 0.32543,1.3798 0.22836,0.38572 0.58233,0.77147 1.06191,1.15726 l 5.68635,4.20616 c 0.33112,0.25218 0.67938,0.48216 1.04478,0.6899 0.36538,0.20768 0.74789,0.31153 1.14755,0.31157 1.01623,-4e-5 1.75842,-0.4748 2.22658,-1.42432 0.47957,-0.93473 0.71935,-2.28485 0.71937,-4.05037 l 0,-21.52045 c -2e-5,-0.72699 -0.0457,-1.41689 -0.13703,-2.0697 -0.0913,-0.63797 -0.25692,-1.20176 -0.49669,-1.69136 -0.22838,-0.48961 -0.54239,-0.87536 -0.94202,-1.15726 -0.39966,-0.28189 -0.90778,-0.42284 -1.52435,-0.42284 -1.07334,0 -1.84979,0.48961 -2.32935,1.46882 -0.47959,0.97921 -0.71937,2.44061 -0.71937,4.38421 l 0,18.69407 -2.94594,-2.33676"
         id="path4645"
         inkscape:connector-curvature="0" /><path
         style="font-size:89.69837189px;font-style:normal;font-variant:normal;font-weight:bold;font-stretch:normal;line-height:100%;letter-spacing:0px;word-spacing:-0.07474866px;fill:#ffffff;fill-opacity:1;stroke:none;font-family:Nunito;-inkscape-font-specification:Sans Bold"
         d="m 745.17228,526.61448 c -1.24461,-3e-5 -2.36194,-0.21337 -3.33249,-0.62876 -0.97057,-0.40062 -1.81363,-0.96801 -2.54441,-1.70981 -0.73078,-0.72702 -1.35507,-1.60168 -1.86889,-2.62537 -0.50241,-1.02374 -0.91872,-2.1551 -1.23843,-3.3865 -0.31972,-1.23147 -0.54959,-2.54345 -0.69802,-3.93807 -0.13702,-1.39465 -0.20266,-2.82946 -0.20265,-4.3131 -10e-6,-2.29969 0.16408,-4.45742 0.50662,-6.47519 0.34255,-2.00294 0.90106,-3.75948 1.67751,-5.2728 0.78786,-1.4985 1.81752,-2.68765 3.07355,-3.563 1.25602,-0.86052 2.80027,-1.29063 4.62721,-1.29063 1.22176,0 2.30579,0.19509 3.26494,0.59567 0.97055,0.4006 1.82487,0.97179 2.55567,1.69877 0.73075,0.72699 1.35505,1.59443 1.86889,2.60331 0.51381,1.02372 0.92995,2.14404 1.24969,3.37548 0.33111,1.23143 0.57208,2.54342 0.72054,3.93806 0.14841,1.40946 0.21389,2.87698 0.21391,4.39033 -2e-5,2.29965 -0.17521,4.45738 -0.52915,6.47518 -0.35399,2.01774 -0.92343,3.77428 -1.71128,5.2728 -0.77646,1.49847 -1.79502,2.68039 -3.05103,3.54094 -1.25603,0.87533 -2.77808,1.31266 -4.58218,1.31269 z m 0,-5.4493 c 0.78786,-3e-5 1.42293,-0.27841 1.91393,-0.82732 0.49098,-0.54899 0.87431,-1.32248 1.14836,-2.31651 0.27402,-0.97924 0.4603,-2.15393 0.55166,-3.51888 0.10276,-1.36498 0.14635,-2.85759 0.14636,-4.4896 -10e-6,-1.67655 -0.0436,-3.20187 -0.14636,-4.56683 -0.10278,-1.36497 -0.30015,-2.53244 -0.57418,-3.49681 -0.27405,-0.96439 -0.65738,-1.70518 -1.14835,-2.2393 -0.49101,-0.53411 -1.11498,-0.80525 -1.89142,-0.80525 -0.78787,0 -1.43421,0.27114 -1.92518,0.80525 -0.49101,0.53412 -0.87433,1.29317 -1.14837,2.27239 -0.26262,0.9792 -0.43764,2.14287 -0.5404,3.50785 -0.0914,1.36494 -0.14638,2.87583 -0.14636,4.5227 -2e-5,1.64685 0.055,3.14668 0.14636,4.51167 0.10276,1.36494 0.27778,2.53964 0.5404,3.51888 0.27404,0.99402 0.65736,1.76029 1.14837,2.29444 0.49097,0.54891 1.13731,0.82729 1.92518,0.82732 z"
         id="path4647"
         inkscape:connector-curvature="0" /><path
         style="font-size:89.69837189px;font-style:normal;font-variant:normal;font-weight:bold;font-stretch:normal;line-height:100%;letter-spacing:0px;word-spacing:-0.07474866px;fill:#ffffff;fill-opacity:1;stroke:none;font-family:Nunito;-inkscape-font-specification:Sans Bold"
         d="m 722.07873,520.80443 c -0.4225,-3e-5 -0.85068,-0.052 -1.28458,-0.15579 -0.4339,-0.0891 -0.86209,-0.20774 -1.28456,-0.35607 -0.41107,-0.1484 -0.81642,-0.31901 -1.21605,-0.51187 -0.39966,-0.1929 -0.77646,-0.37835 -1.13043,-0.55637 -0.29689,-0.14839 -0.57663,-0.22257 -0.83925,-0.22255 -0.29688,-2e-5 -0.57093,0.0742 -0.82213,0.22255 -0.23978,0.14834 -0.45102,0.34863 -0.63372,0.60088 -0.17127,0.26704 -0.30829,0.57118 -0.41105,0.91245 -0.10278,0.34121 -0.15416,0.70471 -0.15416,1.09049 0,0.53409 0.11991,1.05336 0.35968,1.55784 0.23979,0.50441 0.63943,0.91242 1.19893,1.22402 0.57093,0.31153 1.15897,0.59342 1.76414,0.84568 0.61659,0.26703 1.23318,0.48957 1.84978,0.66764 0.61659,0.19285 1.22177,0.34122 1.81552,0.4451 0.60517,0.10382 1.1818,0.15576 1.72989,0.15579 1.23317,-3e-5 2.36931,-0.19292 3.40839,-0.57864 1.03906,-0.37094 1.93541,-0.91989 2.68903,-1.64685 0.75359,-0.71219 1.34164,-1.60238 1.76414,-2.67058 0.43387,-1.05343 0.65083,-2.27002 0.65085,-3.64979 -2e-5,-1.55787 -0.2969,-3.14538 -0.89063,-4.76255 -0.59378,-1.6172 -1.38736,-3.21212 -2.38075,-4.78478 -0.98198,-1.55786 -2.1124,-3.07119 -3.39125,-4.54 -1.27887,-1.46882 -2.6034,-2.84862 -3.9736,-4.13939 l 7.4505,0 c 0.4453,-10e-6 0.86778,-0.052 1.26745,-0.15579 0.41103,-0.089 0.77071,-0.24481 1.07903,-0.46735 0.30827,-0.22256 0.55377,-0.51928 0.73649,-0.8902 0.19409,-0.35608 0.29114,-0.80117 0.29116,-1.33529 -2e-5,-0.96437 -0.21126,-1.69137 -0.63371,-2.18098 -0.42251,-0.4896 -1.02769,-0.7344 -1.81553,-0.7344 l -12.74292,0 c -0.41107,0 -0.79929,0.052 -1.16468,0.15578 -0.36539,0.10386 -0.6851,0.27448 -0.95914,0.51186 -0.26262,0.25222 -0.47386,0.57863 -0.63372,0.97922 -0.14844,0.41542 -0.22266,0.91986 -0.22266,1.51333 0,1.49849 0.51953,2.81894 1.55861,3.96137 l 2.50063,2.75959 c 0.34254,0.38574 0.67939,0.75666 1.01052,1.11274 0.33113,0.37091 0.61659,0.70473 0.85638,1.00147 l 0.68511,0.84568 c 0.82211,0.97921 1.57001,1.94358 2.24371,2.89314 0.67368,0.96435 1.25031,1.89164 1.72989,2.78185 0.47955,0.89018 0.85065,1.72844 1.1133,2.5148 0.26259,0.78632 0.39391,1.50589 0.39392,2.15872 -10e-6,0.57861 -0.0971,1.07562 -0.29117,1.49107 -0.19412,0.43024 -0.45674,0.78632 -0.78786,1.06823 -0.31973,0.29672 -0.69654,0.51184 -1.13043,0.6454 -0.43391,0.14834 -0.88493,0.22252 -1.35307,0.22255"
         id="path4649"
         inkscape:connector-curvature="0" /></g><flowRoot
       xml:space="preserve"
       id="flowRoot3271"
       style="font-size:13.99999976px;font-style:normal;font-variant:normal;font-weight:normal;font-stretch:normal;text-indent:0;text-align:justify;text-decoration:none;line-height:125%;letter-spacing:normal;word-spacing:normal;text-transform:none;direction:ltr;block-progression:tb;writing-mode:lr;text-anchor:start;baseline-shift:baseline;color:#000000;fill:#4d4d4d;fill-opacity:1;fill-rule:nonzero;stroke:none;stroke-width:1.25;marker:none;visibility:visible;display:inline;overflow:visible;enable-background:accumulate;font-family:'Titillium Web';-inkscape-font-specification:'Titillium Web, Normal';"
       transform="matrix(0.8,0,0,-0.8,695.56162,689.45604)"><flowRegion
         id="flowRegion3273"><rect
           id="rect3275"
           width="399.82764"
           height="179.08408"
           x="-291.6474"
           y="354.7063"
           style="font-size:13.99999976px;font-style:normal;font-variant:normal;font-weight:normal;font-stretch:normal;text-indent:0;text-align:justify;text-decoration:none;line-height:125%;letter-spacing:normal;word-spacing:normal;text-transform:none;direction:ltr;block-progression:tb;writing-mode:lr;text-anchor:start;baseline-shift:baseline;color:#000000;fill:#4d4d4d;fill-opacity:1;fill-rule:nonzero;stroke-width:1.25;marker:none;visibility:visible;display:inline;overflow:visible;enable-background:accumulate;font-family:'Titillium Web';-inkscape-font-specification:'Titillium Web, Normal';" /></flowRegion><flowPara
         id="flowPara3403">Además durante 2014 gestionamos convertirnos en Punto Formativo de la Obra Social “la Caixa”, y lo conseguimos. Gracias a esta colaboración 60 personas se formarán en 2015 en áreas como la cocina, la hostelería y limpieza.</flowPara></flowRoot><text
       xml:space="preserve"
       style="font-size:22.39999962px;font-style:normal;font-variant:normal;font-weight:normal;font-stretch:normal;text-align:center;line-height:100%;letter-spacing:0px;word-spacing:-0.008px;writing-mode:lr;text-anchor:middle;fill:#4c4696;fill-opacity:1;stroke:none;font-family:'Indie Flower';-inkscape-font-specification:'Indie Flower, Normal';"
       x="622.23303"
       y="-443.14163"
       id="text4606"
       sodipodi:linespacing="100%"
       transform="scale(1,-1)"><tspan
         sodipodi:role="line"
         id="tspan3438">Nos convertimos en Punto </tspan><tspan
         sodipodi:role="line"
         id="tspan3440">Formativo de Obra social “la Caixa”</tspan></text>
<flowRoot
       xml:space="preserve"
       id="flowRoot3182"
       style="fill:black;stroke:none;stroke-opacity:1;stroke-width:1px;stroke-linejoin:miter;stroke-linecap:butt;fill-opacity:1;font-family:Nunito;font-style:normal;font-weight:bold;font-size:12px;line-height:100%;letter-spacing:0px;word-spacing:-0.01000000000000000px;-inkscape-font-specification:Sans Bold;font-stretch:normal;font-variant:normal"><flowRegion
         id="flowRegion3184"><rect
           id="rect3186"
           width="102.4707"
           height="406.72989"
           x="-266.42383"
           y="-157.64725" /></flowRegion><flowPara
         id="flowPara3188" /></flowRoot><image
       sodipodi:absref="/home/creawww/KGESTION/070_novaterra/memoria Anual/memoria 2014/paginas/images/P28-1.jpg"
       xlink:href="images/P28-1.jpg"
       y="-450.6004"
       x="123.17897"
       id="image4090"
       height="87.095642"
       width="197.57268"
       transform="scale(1,-1)" /><image
       sodipodi:absref="/home/creawww/KGESTION/070_novaterra/memoria Anual/memoria 2014/paginas/images/P28-2.JPG"
       xlink:href="images/P28-2.JPG"
       y="-330.5361"
       x="48.197166"
       id="image4184"
       height="190.27509"
       width="374.92249"
       transform="scale(1,-1)" /><image
       sodipodi:absref="/home/creawww/KGESTION/070_novaterra/memoria Anual/memoria 2014/paginas/images/P28-3.JPG"
       xlink:href="images/P28-3.JPG"
       y="-330.5361"
       x="423.11966"
       id="image4246"
       height="189.40642"
       width="373.53555"
       transform="scale(1,-1)" /><flowRoot
       transform="matrix(0.8,0,0,-0.8,297.61293,409.66276)"
       style="font-size:14px;font-style:normal;font-variant:normal;font-weight:bold;font-stretch:normal;text-indent:0;text-align:justify;text-decoration:none;line-height:125%;letter-spacing:normal;word-spacing:normal;text-transform:none;direction:ltr;block-progression:tb;writing-mode:lr-tb;text-anchor:start;baseline-shift:baseline;color:#000000;fill:#4d4d4d;fill-opacity:1;fill-rule:nonzero;stroke:none;stroke-width:1.25;marker:none;visibility:visible;display:inline;overflow:visible;enable-background:accumulate;font-family:Titillium Web;-inkscape-font-specification:Titillium Web Bold"
       id="flowRoot4255"
       xml:space="preserve"><flowRegion
         id="flowRegion4257"><rect
           style="font-size:14px;font-style:normal;font-variant:normal;font-weight:bold;font-stretch:normal;text-indent:0;text-align:justify;text-decoration:none;line-height:125%;letter-spacing:normal;word-spacing:normal;text-transform:none;direction:ltr;block-progression:tb;writing-mode:lr-tb;text-anchor:start;baseline-shift:baseline;color:#000000;fill:#4d4d4d;fill-opacity:1;fill-rule:nonzero;stroke-width:1.25;marker:none;visibility:visible;display:inline;overflow:visible;enable-background:accumulate;font-family:Titillium Web;-inkscape-font-specification:Titillium Web Bold"
           y="354.7063"
           x="-291.6474"
           height="179.08408"
           width="399.82764"
           id="rect4259" /></flowRegion><flowPara
         id="flowPara4269">Además queremos que el Espai Novaterra se convierta en el espacio de las entidades y asociaciones valencianas, un espacio para sus actividades, reuniones, para compartir. Un espacio plural, dinámico, sostenible, coherente. </flowPara></flowRoot><text
       transform="scale(1,-1)"
       sodipodi:linespacing="100%"
       id="text4263"
       y="-91.028275"
       x="605.34814"
       style="font-size:32px;font-style:normal;font-variant:normal;font-weight:normal;font-stretch:normal;text-align:center;line-height:100%;letter-spacing:0px;word-spacing:-0.008px;writing-mode:lr-tb;text-anchor:middle;fill:#4c4696;fill-opacity:1;stroke:none;font-family:Indie Flower;-inkscape-font-specification:Indie Flower"
       xml:space="preserve"><tspan
         sodipodi:role="line"
         id="tspan4271"
         x="605.34814"
         y="-91.028275">Espai Novaterra, tu espacio</tspan></text>
</g></svg>