<?xml version="1.0" encoding="UTF-8" standalone="no"?>
<!-- Created with Inkscape (http://www.inkscape.org/) -->

<svg
   xmlns:dc="http://purl.org/dc/elements/1.1/"
   xmlns:cc="http://creativecommons.org/ns#"
   xmlns:rdf="http://www.w3.org/1999/02/22-rdf-syntax-ns#"
   xmlns:svg="http://www.w3.org/2000/svg"
   xmlns="http://www.w3.org/2000/svg"
   xmlns:sodipodi="http://sodipodi.sourceforge.net/DTD/sodipodi-0.dtd"
   xmlns:inkscape="http://www.inkscape.org/namespaces/inkscape"
   width="150.14223mm"
   height="66.32222mm"
   viewBox="0 0 532.00002 234.99999"
   id="svg4460"
   version="1.1"
   inkscape:version="0.91 r13725"
   inkscape:export-filename="/home/creawww/KGESTION/070_novaterra/memoria Anual/memoria 2014/paginas/images/LogoNovaterra.png.png"
   inkscape:export-xdpi="300"
   inkscape:export-ydpi="300"
   sodipodi:docname="logonovaterra.svg">
  <defs
     id="defs4462" />
  <sodipodi:namedview
     id="base"
     pagecolor="#ffffff"
     bordercolor="#666666"
     borderopacity="1.0"
     inkscape:pageopacity="0.0"
     inkscape:pageshadow="2"
     inkscape:zoom="0.7"
     inkscape:cx="-47.615903"
     inkscape:cy="278.39943"
     inkscape:document-units="px"
     inkscape:current-layer="layer1"
     showgrid="false"
     fit-margin-top="0"
     fit-margin-left="0"
     fit-margin-right="0"
     fit-margin-bottom="0"
     inkscape:window-width="1280"
     inkscape:window-height="958"
     inkscape:window-x="0"
     inkscape:window-y="27"
     inkscape:window-maximized="1" />
  <metadata
     id="metadata4465">
    <rdf:RDF>
      <cc:Work
         rdf:about="">
        <dc:format>image/svg+xml</dc:format>
        <dc:type
           rdf:resource="http://purl.org/dc/dcmitype/StillImage" />
        <dc:title></dc:title>
      </cc:Work>
    </rdf:RDF>
  </metadata>
  <g
     inkscape:label="Capa 1"
     inkscape:groupmode="layer"
     id="layer1"
     transform="translate(-119.71429,-512.00507)">
    <path
       d="m 128.29576,512.41562 118.55034,0 0.2185,118.42656 -23.10488,-41.80708 -21.25645,0 0,69.87097 21.09251,0.18612 -0.37461,-41.63717 23.08704,41.44974 6.53856,11.91144 -125.47878,0.14687 0.73167,-158.54873 0,0 z"
       style="fill:#7b6eb0;fill-opacity:1;fill-rule:nonzero;stroke:none"
       id="path5607"
       inkscape:connector-curvature="0" />
    <path
       d="m 249.32579,588.79521 18.44144,0 0.37498,70.44647 -18.37935,0.15122 5.97827,11.3061 27.97164,-0.0625 -0.44621,-158.18967 -33.33844,-0.0459 -0.59843,76.38018 0,0.014 z"
       style="fill:#8dc8ab;fill-opacity:1;fill-rule:nonzero;stroke:none"
       id="path5609"
       inkscape:connector-curvature="0" />
    <path
       d="m 538.57254,598.30261 0,-1.44814 -11.55877,0 0,1.24228 c 0,4.65077 -0.3151,8.77178 -5.29212,8.77178 -5.18185,0 -5.61501,-4.77663 -5.61501,-17.73673 0,-9.86156 0.25139,-16.086 5.67196,-16.086 4.5961,0 4.97729,3.68264 4.97729,7.40852 l 0,1.23838 11.43556,0 0,-1.64099 c 0,-12.09506 -6.52428,-14.84923 -16.54982,-14.84923 -16.15,0 -17.17379,9.94675 -17.17379,25.38657 0,17.70584 2.9776,24.11858 17.31076,24.11858 11.69735,0 16.79394,-4.31029 16.79394,-16.40502"
       style="fill:#7b6eb0;fill-opacity:1;fill-rule:nonzero;stroke:none"
       id="path5611"
       inkscape:connector-curvature="0" />
    <path
       d="m 543.17264,566.31534 11.64003,0 0,47.28073 -11.64003,0 0,-47.28073 z"
       style="fill:#7b6eb0;fill-opacity:1;fill-rule:nonzero;stroke:none"
       id="path5613"
       inkscape:connector-curvature="0" />
    <path
       d="m 587.50859,553.36173 -10.15913,0 -5.42411,9.4261 6.02255,0 9.56069,-9.4261 z"
       style="fill:#7b6eb0;fill-opacity:1;fill-rule:nonzero;stroke:none"
       id="path5615"
       inkscape:connector-curvature="0" />
    <path
       d="m 421.55563,613.59607 0,-47.28073 -9.44103,0 0,38.59415 -9.04114,-38.59415 -16.85994,0 0,47.28073 9.48946,0 0,-38.50896 9.04983,38.50896 16.80282,0 z"
       style="fill:#7b6eb0;fill-opacity:1;fill-rule:nonzero;stroke:none"
       id="path5617"
       inkscape:connector-curvature="0" />
    <path
       d="m 340.83843,574.09752 0,-7.78089 -26.2961,0 0,47.28075 11.62478,0 0,-20.40409 14.16567,0 0,-7.44429 -14.16567,0 0,-11.65148 14.67132,0 z"
       style="fill:#7b6eb0;fill-opacity:1;fill-rule:nonzero;stroke:none"
       id="path5619"
       inkscape:connector-curvature="0" />
    <path
       d="m 603.66968,669.60405 12.39593,-46.98871 14.0359,0 11.55123,46.98871 -11.98928,0 -0.96684,-4.60622 -12.13929,0 -1.01013,4.60622 -11.87752,0 z m 15.51201,-16.1943 7.08724,0 -3.42603,-16.53348 -3.66121,16.53348 z m -39.21531,-10.4931 6.44826,0 c 1.69327,0 2.87603,-0.31381 3.57727,-0.96911 0.67836,-0.65432 1.02761,-1.76718 1.02761,-3.29531 0,-1.54344 -0.31483,-2.58768 -0.9743,-3.20263 -0.65173,-0.58668 -1.96002,-0.9057 -3.90123,-0.9057 l -6.17761,0 0,8.37275 z m 10.52106,-20.30131 c 2.48234,0 4.48558,0.21496 5.97926,0.5922 1.48524,0.39382 2.66411,1.01366 3.49238,1.82929 1.05564,1.05431 1.88391,2.43514 2.45174,4.18832 0.55771,1.74929 0.82827,3.76264 0.82827,6.04916 0,2.78085 -0.40291,5.21989 -1.24485,7.32853 -0.84229,2.09854 -1.99054,3.60913 -3.45796,4.56069 1.25895,0.86505 2.14542,1.93724 2.64237,3.21889 0.50928,1.26536 0.81559,3.55191 0.90306,6.79517 0.0177,0.35448 0.0177,0.83838 0.0355,1.46602 0.1902,6.14315 0.68714,9.55165 1.51675,10.24628 l 0,0.71416 -12.30456,0 c -0.36717,-0.98702 -0.59346,-2.89758 -0.62505,-5.7851 -0.0346,-1.6592 -0.0567,-2.94733 -0.13723,-3.87092 -0.10175,-1.69953 -0.46501,-2.90508 -1.04162,-3.60883 -0.58441,-0.70015 -1.56385,-1.05462 -2.9509,-1.05462 l -6.60847,0 0,14.31947 -11.22222,0 0,-46.98871 21.74328,0 z m -49.73248,20.30131 6.45828,0 c 1.70117,0 2.86734,-0.31381 3.56327,-0.96911 0.68749,-0.65432 1.03683,-1.76718 1.03683,-3.29531 0,-1.54344 -0.31909,-2.58768 -0.97439,-3.20263 -0.65688,-0.58668 -1.95514,-0.9057 -3.89627,-0.9057 l -6.18772,0 0,8.37275 z m 10.53509,-20.30131 c 2.48198,0 4.47643,0.21496 5.97047,0.5922 1.47611,0.39382 2.63713,1.01366 3.49725,1.82929 1.06309,1.05431 1.866,2.43514 2.45041,4.18832 0.54512,1.74929 0.83325,3.76264 0.83325,6.04916 0,2.78085 -0.42057,5.21989 -1.25373,7.32853 -0.85107,2.09854 -2.00322,3.60913 -3.46666,4.56069 1.26766,0.86505 2.16716,1.93724 2.669,3.21889 0.5043,1.26536 0.79766,3.55191 0.88549,6.79517 0.009,0.35448 0.0177,0.83838 0.0408,1.46602 0.1854,6.14315 0.68199,9.55165 1.50637,10.24628 l 0,0.71416 -12.29409,0 c -0.3724,-0.98702 -0.58956,-2.89758 -0.63028,-5.7851 -0.0266,-1.6592 -0.0656,-2.94733 -0.14602,-3.87092 -0.0966,-1.69953 -0.46501,-2.90508 -1.04162,-3.60883 -0.5805,-0.70015 -1.5548,-1.05462 -2.94212,-1.05462 l -6.61343,0 0,14.31947 -11.22604,0 0,-46.98871 21.76112,0 z m -56.51757,46.98871 0,-46.98871 30.27993,0 0,11.54742 -19.19982,0 0,5.57436 15.54385,0 0,11.61472 -15.54385,0 0,6.16104 20.14359,0 0,12.09117 -31.2237,0 z m -24.647,0 0,-35.06015 -10.33149,0 0,-11.92856 31.78239,0 0,11.92856 -10.37992,0 0,35.06015 -11.07098,0 z m -45.65577,0 12.37934,-46.98871 14.02712,0 11.56401,46.98871 -11.98973,0 -0.94369,-4.60622 -12.16076,0 -1.01527,4.60622 -11.86102,0 z m 15.49543,-16.1943 7.09503,0 -3.45654,-16.53348 -3.63849,16.53348 z m -35.88323,16.1943 -12.62711,-46.98871 12.4951,0 6.0583,31.44971 6.37826,-31.44971 12.36559,0 -13.12884,46.98871 -11.5413,0 z m -50.0866,-23.4633 c 0,-8.1656 1.60429,-14.35103 4.84883,-18.4935 3.2267,-4.16166 8.02611,-6.24233 14.35985,-6.24233 6.36949,0 11.14221,2.08067 14.38283,6.24233 3.22671,4.14247 4.85629,10.3279 4.85629,18.4935 0,8.15681 -1.62958,14.31947 -4.85629,18.46324 -3.24062,4.15648 -8.01334,6.23715 -14.38283,6.23715 -6.33374,0 -11.13315,-2.08067 -14.35985,-6.23715 -3.24454,-4.14377 -4.84883,-10.30643 -4.84883,-18.46324 m 11.90935,0 c 0,4.07158 0.60722,7.20169 1.87877,9.36757 1.25009,2.15317 3.04875,3.24326 5.42056,3.24326 2.37554,0 4.17952,-1.09009 5.44718,-3.24326 1.25399,-2.16588 1.87868,-5.29599 1.87868,-9.36757 0,-4.10832 -0.62469,-7.24722 -1.87868,-9.42577 -1.26766,-2.18897 -3.07164,-3.28751 -5.44718,-3.28751 -2.37181,0 -4.17047,1.09854 -5.42056,3.28751 -1.27155,2.17855 -1.87877,5.31745 -1.87877,9.42577 m -51.35062,23.4633 0,-46.98871 13.09176,0 11.02289,27.0773 0,-27.0773 10.72173,0 0,46.98871 -12.41021,0 -11.99293,-27.51309 0,27.51309 -10.43324,0 z"
       style="fill:#7b6eb0;fill-opacity:1;fill-rule:nonzero;stroke:none"
       id="path5621"
       inkscape:connector-curvature="0" />
    <path
       d="m 379.42346,597.77675 0,-31.46272 -11.35944,0 0,31.31898 c 0,5.17142 -0.73656,9.23422 -5.96161,9.23422 -5.04816,0 -5.8853,-3.99547 -5.8853,-9.36365 l 0,-31.18955 -11.57661,0 0,31.31898 c 0,11.77734 5.18539,17.07331 17.39095,17.07331 11.62975,0 17.39201,-4.43093 17.39201,-16.92957"
       style="fill:#7b6eb0;fill-opacity:1;fill-rule:nonzero;stroke:none"
       id="path5623"
       inkscape:connector-curvature="0" />
    <path
       d="m 379.42346,597.77675 0,-31.46272 -11.35944,0 0,31.31898 c 0,5.17142 -0.73656,9.23422 -5.96161,9.23422 -5.04816,0 -5.8853,-3.99547 -5.8853,-9.36365 l 0,-31.18955 -11.57661,0 0,31.31898 c 0,11.77734 5.18539,17.07331 17.39095,17.07331 11.62975,0 17.39201,-4.43093 17.39201,-16.92957"
       style="fill:#7b6eb0;fill-opacity:1;fill-rule:nonzero;stroke:none"
       id="path5625"
       inkscape:connector-curvature="0" />
    <path
       d="m 451.08694,589.66156 c 0,9.67357 -0.26542,16.09542 -7.68043,16.09542 l -3.30671,0 0,-31.58955 3.23584,0 c 6.97536,0 7.7513,4.44882 7.7513,15.49413 m 11.68723,-0.99058 c 0,-16.08144 -1.8078,-22.35564 -18.98266,-22.35564 l -15.2505,0 0,47.28073 15.17935,0 c 18.09735,0 19.05381,-7.5877 19.05381,-24.92509"
       style="fill:#7b6eb0;fill-opacity:1;fill-rule:nonzero;stroke:none"
       id="path5627"
       inkscape:connector-curvature="0" />
    <path
       d="m 599.64789,613.55542 0,-46.98838 13.09699,0 11.01899,27.07341 0,-27.07341 10.72039,0 0,46.98838 -12.40108,0 -12.00205,-27.51178 0,27.51178 -10.43324,0 z"
       style="fill:#7b6eb0;fill-opacity:1;fill-rule:nonzero;stroke:none"
       id="path5629"
       inkscape:connector-curvature="0" />
    <path
       d="m 463.80701,613.31542 12.48109,-47.29342 14.12992,0 11.62479,47.29342 -12.05929,0 -0.97039,-4.64199 -12.21576,0 -1.04552,4.64199 -11.94484,0 z m 15.60994,-16.28828 7.13141,0 -3.45273,-16.64665 -3.67868,16.64665 z"
       style="fill:#7b6eb0;fill-opacity:1;fill-rule:nonzero;stroke:none"
       id="path5631"
       inkscape:connector-curvature="0" />
    <path
       d="m 558.40397,589.96921 c 0,-8.17081 1.61823,-14.35103 4.84485,-18.49871 3.23947,-4.16686 8.0349,-6.24753 14.38167,-6.24753 6.35547,0 11.14185,2.08067 14.36465,6.24753 3.23061,4.14768 4.84396,10.3279 4.84396,18.49871 0,8.14413 -1.61335,14.31393 -4.84396,18.45284 -3.2228,4.18442 -8.00918,6.24754 -14.36465,6.24754 -6.34677,0 -11.1422,-2.06312 -14.38167,-6.24754 -3.22662,-4.13891 -4.84485,-10.30871 -4.84485,-18.45284 m 11.90546,0 c 0,4.06246 0.63382,7.19778 1.8738,9.36723 1.27643,2.14441 3.07678,3.23319 5.44726,3.23319 2.37173,0 4.18831,-1.08878 5.42926,-3.23319 1.26765,-2.16945 1.88391,-5.30477 1.88391,-9.36723 0,-4.11711 -0.61626,-7.25243 -1.88391,-9.43618 -1.24095,-2.18735 -3.05753,-3.27743 -5.42926,-3.27743 -2.37048,0 -4.17083,1.09008 -5.44726,3.27743 -1.23998,2.18375 -1.8738,5.31907 -1.8738,9.43618"
       style="fill:#7b6eb0;fill-opacity:1;fill-rule:nonzero;stroke:none"
       id="path5633"
       inkscape:connector-curvature="0" />
    <path
       d="m 147.35378,727.5573 -6.29867,-26.0827 0,28.26389 c 0,1.5669 -0.32829,2.73402 -1.00801,3.51811 -0.66354,0.78411 -1.55162,1.17072 -2.65282,1.17072 -1.07543,0 -1.94723,-0.37774 -2.6321,-1.14243 -0.67215,-0.78409 -1.01254,-1.96535 -1.01254,-3.5464 l 0,-32.39993 c 0,-1.78931 0.43907,-2.9847 1.33568,-3.59772 0.89819,-0.63997 2.10427,-0.94992 3.61364,-0.95356 l 2.46694,0 c 1.48194,0 2.55196,0.13754 3.2155,0.41888 0.67755,0.28132 1.17629,0.78409 1.49943,1.50767 0.31678,0.72486 0.68113,1.9137 1.09747,3.54605 l 5.70029,22.42641 5.70135,-22.42641 c 0.42304,-1.63235 0.77841,-2.82119 1.10154,-3.54605 0.32158,-0.72358 0.81815,-1.22635 1.48673,-1.50767 0.66736,-0.28134 1.75107,-0.41888 3.23169,-0.41888 l 2.45972,0 c 1.52183,0 2.72912,0.31359 3.62226,0.95356 0.89304,0.61302 1.33089,1.80841 1.34456,3.59772 l 0,32.39993 c 0,1.5669 -0.34422,2.73402 -1.02656,3.51811 -0.66354,0.78411 -1.54803,1.17072 -2.68409,1.17072 -1.048,0 -1.91586,-0.38661 -2.58706,-1.17072 -0.68592,-0.78409 -1.02152,-1.95121 -1.02152,-3.51811 l 0,-28.26389 -6.29389,26.0827 c -0.41163,1.69158 -0.75707,2.94623 -1.0128,3.74809 -0.25581,0.78016 -0.72964,1.49484 -1.42958,2.14897 -0.69837,0.6505 -1.65369,0.97296 -2.89235,0.97296 -0.9244,0 -1.71144,-0.21585 -2.35232,-0.64524 -0.64629,-0.40603 -1.14154,-0.94074 -1.49055,-1.58597 -0.36173,-0.65019 -0.64978,-1.37012 -0.87206,-2.15424 -0.19441,-0.80186 -0.4004,-1.62709 -0.60988,-2.48457"
       style="fill:#289554;fill-opacity:0.74583297;fill-rule:evenodd;stroke:none"
       id="path5635"
       inkscape:connector-curvature="0" />
    <path
       d="m 192.8816,692.48522 3.61841,0 c 0.90689,0 1.36217,0.13359 1.36217,0.40999 0,0.1517 -0.49526,0.75679 -1.49944,1.8173 -0.99016,1.06543 -2.0081,2.0848 -3.02064,3.05249 -1.02187,0.96409 -1.72016,1.54881 -2.11455,1.75216 -1.02142,0.54489 -2.11759,0.81206 -3.25912,0.81206 -0.77311,0 -1.16359,-0.23493 -1.16359,-0.69659 0,-0.31882 0.23439,-0.86634 0.69959,-1.65012 l 1.20252,-2.33816 c 0.69837,-1.36125 1.30467,-2.23255 1.81718,-2.60666 0.51764,-0.37281 1.30982,-0.55247 2.35747,-0.55247 m 4.39691,26.61212 c -1.07038,0.40637 -2.63208,0.8486 -4.68366,1.30992 -2.03937,0.44715 -3.45518,0.78408 -4.22855,1.0052 -0.79192,0.19908 -1.5429,0.6232 -2.25504,1.2543 -0.7171,0.62355 -1.07124,1.48595 -1.07124,2.60139 0,1.15296 0.41765,2.13516 1.26095,2.96532 0.83565,0.8022 1.93694,1.19936 3.29014,1.19936 1.44203,0 2.77798,-0.32773 3.99904,-0.97299 1.22838,-0.67879 2.1317,-1.53233 2.69786,-2.57836 0.65873,-1.15295 0.9905,-3.05283 0.9905,-5.7006 l 0,-1.08354 z m 0.4889,11.02679 c -1.7738,1.43462 -3.48498,2.5129 -5.14381,3.24171 -1.64926,0.71467 -3.4977,1.06542 -5.54578,1.06542 -1.87945,0 -3.52488,-0.37905 -4.95785,-1.14406 -1.41077,-0.78376 -2.50345,-1.83012 -3.26435,-3.16307 -0.77433,-1.31484 -1.14982,-2.75833 -1.14982,-4.30319 0,-2.08348 0.63732,-3.85469 1.89696,-5.32616 1.26993,-1.46654 3.00349,-2.45761 5.22743,-2.96039 0.45153,-0.11021 1.60649,-0.35962 3.45014,-0.75547 1.83992,-0.38827 3.41025,-0.75219 4.71493,-1.06575 1.31339,-0.33267 2.74646,-0.72884 4.28552,-1.19902 -0.0837,-2.00649 -0.47775,-3.4819 -1.17604,-4.41375 -0.68617,-0.94995 -2.09694,-1.42048 -4.2545,-1.42048 -1.86735,0 -3.25923,0.26885 -4.21489,0.81242 -0.92535,0.53994 -1.73478,1.34708 -2.40215,2.43061 -0.66736,1.07827 -1.13134,1.79821 -1.42444,2.1437 -0.26696,0.34089 -0.85706,0.50278 -1.76352,0.50278 -0.83216,0 -1.54421,-0.26226 -2.1506,-0.8111 -0.5875,-0.55771 -0.88067,-1.25956 -0.88067,-2.11704 0,-1.34676 0.45666,-2.64646 1.36347,-3.91097 0.91551,-1.26747 2.32619,-2.3046 4.25956,-3.13115 1.92327,-0.81997 4.33309,-1.22633 7.21324,-1.22633 3.21034,0 5.73608,0.40109 7.57591,1.19934 1.83608,0.78412 3.12701,2.03347 3.87423,3.74416 0.76955,1.71594 1.15016,3.98434 1.16385,6.8108 0,1.79426 0,3.31606 -0.0558,4.55655 0,1.24543 0,2.63363 -0.0548,4.16433 0,1.42935 0.22837,2.9278 0.67729,4.49074 0.45022,1.55012 0.69359,2.54119 0.69359,2.99361 0,0.77521 -0.35547,1.49352 -1.07517,2.14402 -0.6935,0.63604 -1.49439,0.95487 -2.37498,0.95487 -0.75585,0 -1.49438,-0.36884 -2.23395,-1.0924 -0.72834,-0.74825 -1.50292,-1.80841 -2.32106,-3.21473"
       style="fill:#289554;fill-opacity:0.74583297;fill-rule:evenodd;stroke:none"
       id="path5637"
       inkscape:connector-curvature="0" />
    <path
       d="m 235.41715,724.4584 c 0,2.09762 -0.48402,3.90997 -1.47166,5.41402 -0.98667,1.49483 -2.43733,2.62838 -4.36182,3.41247 -1.91491,0.76601 -4.2411,1.14374 -7.00114,1.14374 -2.61833,0 -4.86953,-0.42412 -6.74063,-1.25956 -1.87945,-0.82884 -3.264,-1.87651 -4.16218,-3.12589 -0.88424,-1.25956 -1.33569,-2.53195 -1.33569,-3.79019 0,-0.8394 0.29536,-1.55934 0.85925,-2.15424 0.56998,-0.60413 1.29606,-0.8986 2.17543,-0.8986 0.76447,0 1.34945,0.20301 1.75977,0.58504 0.41155,0.39187 0.81448,0.94597 1.18108,1.65538 0.75229,1.36125 1.65021,2.37009 2.68061,3.03441 1.04764,0.66861 2.48586,1.01049 4.28578,1.01049 1.46434,0 2.65797,-0.34188 3.58715,-1.01049 0.94165,-0.68243 1.42444,-1.46652 1.42444,-2.34308 0,-1.34183 -0.50134,-2.31481 -1.47304,-2.93175 -0.96908,-0.61433 -2.56084,-1.19902 -4.7947,-1.75708 -2.52575,-0.65017 -4.57252,-1.33261 -6.16045,-2.03841 -1.57514,-0.72881 -2.83513,-1.68369 -3.77808,-2.85475 -0.94679,-1.17073 -1.42314,-2.61026 -1.42314,-4.32128 0,-1.52543 0.43899,-2.9742 1.31331,-4.3338 0.87936,-1.35595 2.16174,-2.43061 3.86046,-3.23775 1.71632,-0.82129 3.76816,-1.22633 6.1879,-1.22633 1.88842,0 3.58234,0.19809 5.08658,0.60808 1.52182,0.41525 2.77292,0.96408 3.78059,1.65538 1.0142,0.68769 1.78243,1.44352 2.29998,2.28783 0.53392,0.83937 0.80569,1.65539 0.80569,2.45232 0,0.87656 -0.29537,1.59651 -0.86692,2.15424 -0.55117,0.55805 -1.34082,0.8341 -2.37984,0.8341 -0.7469,0 -1.38456,-0.22077 -1.92833,-0.663 -0.5064,-0.45244 -1.10635,-1.1171 -1.79096,-2.01538 -0.55753,-0.74297 -1.20251,-1.33819 -1.95967,-1.78932 -0.74715,-0.44321 -1.76005,-0.66827 -3.04712,-0.66827 -1.32707,0 -2.42358,0.29943 -3.29529,0.89465 -0.87552,0.57582 -1.31329,1.30466 -1.31329,2.17596 0,0.80712 0.32279,1.46651 0.95914,1.98705 0.64603,0.50378 1.51773,0.91771 2.60561,1.2507 1.08371,0.3366 2.58323,0.74658 4.48882,1.23522 2.27768,0.57714 4.1175,1.25956 5.5605,2.06142 1.44073,0.8022 2.51581,1.75708 3.25922,2.85475 0.75612,1.07465 1.12264,2.31482 1.12264,3.71192"
       style="fill:#289554;fill-opacity:0.74583297;fill-rule:evenodd;stroke:none"
       id="path5639"
       inkscape:connector-curvature="0" />
    <path
       d="m 261.02549,718.87393 c 0,2.04365 0.30938,3.8185 0.93302,5.30313 0.64115,1.47181 1.48193,2.56948 2.51198,3.29798 1.04416,0.71468 2.15409,1.06444 3.35277,1.06444 1.30467,0 2.50848,-0.34976 3.59098,-1.06444 1.0891,-0.7285 1.96463,-1.82617 2.62312,-3.29798 0.66736,-1.46521 0.99913,-3.28282 0.99913,-5.44593 0,-1.52183 -0.19833,-2.8995 -0.59621,-4.13604 -0.36782,-1.2224 -0.89818,-2.23255 -1.55788,-3.04362 -0.65839,-0.81636 -1.41451,-1.42048 -2.27254,-1.80709 -0.85324,-0.41525 -1.76003,-0.61433 -2.72399,-0.61433 -1.97335,0 -3.60988,0.84432 -4.90593,2.5369 -1.30468,1.69687 -1.95445,4.09887 -1.95445,7.20698 m 14.32169,21.7808 0,-10.74514 c -1.40694,1.46655 -2.88024,2.59121 -4.41417,3.3753 -1.52182,0.76601 -3.20679,1.14374 -5.06908,1.14374 -2.26036,0 -4.33456,-0.6311 -6.20539,-1.87255 -1.85717,-1.24411 -3.3215,-3.03344 -4.39178,-5.35843 -1.06142,-2.35099 -1.58289,-5.10934 -1.58289,-8.26712 0,-3.24302 0.5301,-6.00894 1.60039,-8.32901 1.08379,-2.32005 2.55195,-4.08998 4.45406,-5.30313 1.91072,-1.20823 4.02013,-1.81236 6.35616,-1.81236 1.95837,0 3.70595,0.42939 5.26732,1.28655 1.55187,0.8305 2.88407,2.11705 3.98538,3.84583 l 0,-0.91276 c 0,-1.40206 0.32182,-2.46254 0.96776,-3.18612 0.64124,-0.7288 1.4768,-1.08878 2.49474,-1.08878 1.00775,0 1.84853,0.35998 2.49447,1.08878 0.63609,0.70547 0.9643,1.76598 0.9643,3.18612 l 0,32.94908 c 0,3.3842 -1.1587,5.07709 -3.45877,5.08598 -1.42435,0 -2.37497,-0.45638 -2.81788,-1.37011 -0.43262,-0.9075 -0.64462,-2.14767 -0.64462,-3.71587"
       style="fill:#289554;fill-opacity:0.74583297;fill-rule:evenodd;stroke:none"
       id="path5641"
       inkscape:connector-curvature="0" />
    <path
       d="m 308.58021,730.12413 0,-0.98185 c -0.86307,1.16185 -1.7785,2.12593 -2.74288,2.91892 -0.96778,0.77488 -2.01672,1.3507 -3.17073,1.71956 -1.13605,0.39748 -2.44203,0.59523 -3.90514,0.59523 -1.77372,0 -3.35277,-0.38827 -4.77721,-1.14375 -1.37942,-0.765 -2.45832,-1.82156 -3.22786,-3.16339 -0.90689,-1.60901 -1.3673,-3.94321 -1.3673,-6.97662 l 0,-15.11282 c 0,-1.52543 0.32698,-2.66062 0.98667,-3.40723 0.66737,-0.7571 1.53427,-1.13879 2.63174,-1.13879 1.09652,0 1.99444,0.38169 2.67931,1.13879 0.66352,0.76075 1.00426,1.89957 1.00426,3.40723 l 0,12.20279 c 0,1.77515 0.15453,3.25978 0.43393,4.47296 0.29571,1.18882 0.79576,2.12592 1.53428,2.82252 0.74689,0.66334 1.74725,0.99994 3.021,0.99994 1.23352,0 2.39231,-0.37775 3.48498,-1.1388 1.08884,-0.76601 1.87588,-1.76203 2.38333,-2.98835 0.4119,-1.07959 0.61493,-3.44965 0.61493,-7.09739 l 0,-9.27367 c 0,-1.50766 0.34073,-2.64648 1.01795,-3.40723 0.68113,-0.7571 1.56528,-1.13879 2.64421,-1.13879 1.09267,0 1.97334,0.38169 2.62319,1.13879 0.66728,0.74661 0.99522,1.8818 0.99522,3.40723 l 0,22.08944 c 0,1.4616 -0.32315,2.54119 -0.9643,3.27001 -0.62843,0.72356 -1.43306,1.0924 -2.43699,1.0924 -0.99051,0 -1.8312,-0.37773 -2.49472,-1.1207 -0.6361,-0.7647 -0.96787,-1.8265 -0.96787,-3.18643"
       style="fill:#289554;fill-opacity:0.74583297;fill-rule:evenodd;stroke:none"
       id="path5643"
       inkscape:connector-curvature="0" />
    <path
       d="m 328.84016,716.46897 13.2513,0 c -0.17822,-2.60009 -0.84427,-4.54602 -2.02571,-5.83784 -1.16357,-1.30463 -2.69785,-1.94989 -4.62233,-1.94989 -1.80856,0 -3.308,0.65448 -4.48916,1.97292 -1.15879,1.30993 -1.85708,3.24697 -2.1141,5.81481 m 14.30409,4.33016 -14.30409,0 c 0,1.73009 0.33933,3.26113 0.9952,4.57958 0.65012,1.32406 1.51677,2.32403 2.5922,2.98835 1.09233,0.6775 2.28621,1.01049 3.58201,1.01049 0.87684,0 1.67634,-0.11056 2.39221,-0.31885 0.72616,-0.21222 1.43822,-0.54884 2.11551,-0.99599 0.68103,-0.47053 1.30467,-0.9641 1.87492,-1.4899 0.56615,-0.51132 1.30441,-1.21187 2.22499,-2.11672 0.36686,-0.33168 0.90201,-0.50278 1.60552,-0.50278 0.75576,0 1.35319,0.21717 1.82579,0.65052 0.45049,0.42017 0.69002,1.02429 0.69002,1.81728 0,0.6775 -0.26697,1.49353 -0.78234,2.42537 -0.5125,0.90881 -1.29571,1.78932 -2.34849,2.65699 -1.03902,0.83413 -2.34501,1.53069 -3.94539,2.08843 -1.56529,0.55805 -3.37889,0.83936 -5.42698,0.83936 -4.70978,0 -8.35442,-1.3971 -10.95995,-4.19263 -2.6043,-2.78925 -3.90515,-6.57948 -3.90515,-11.36733 0,-2.24932 0.31801,-4.33939 0.96011,-6.25703 0.64115,-1.93181 1.58279,-3.59246 2.80769,-4.97148 1.23857,-1.37408 2.74288,-2.42534 4.55657,-3.15813 1.80856,-0.74263 3.80299,-1.11182 6.00585,-1.11182 2.85751,0 5.29833,0.63111 7.33265,1.89988 2.05313,1.24541 3.59097,2.86363 4.60509,4.8609 1.02047,1.9963 1.52913,4.02056 1.52913,6.08233 0,1.91764 -0.5287,3.17194 -1.57895,3.74907 -1.05279,0.55806 -2.54325,0.83411 -4.44412,0.83411"
       style="fill:#289554;fill-opacity:0.74583297;fill-rule:evenodd;stroke:none"
       id="path5645"
       inkscape:connector-curvature="0" />
    <path
       d="m 388.03464,730.12413 0,-0.98185 c -0.87553,1.16185 -1.80115,2.12593 -2.76901,2.91892 -0.96908,0.77488 -2.01681,1.3507 -3.15321,1.71956 -1.1412,0.39748 -2.45103,0.59523 -3.91021,0.59523 -1.77381,0 -3.3566,-0.38827 -4.76736,-1.14375 -1.40171,-0.76632 -2.47209,-1.82156 -3.24284,-3.16339 -0.91421,-1.60901 -1.37471,-3.94321 -1.37471,-6.97794 l 0,-15.1115 c 0,-1.52543 0.33307,-2.66062 0.99564,-3.40723 0.66223,-0.7571 1.5429,-1.13879 2.63532,-1.13879 1.09651,0 1.99468,0.38301 2.66685,1.13879 0.68103,0.76075 1.02143,1.89957 1.02143,3.40723 l 0,12.20279 c 0,1.77515 0.14466,3.25978 0.42792,4.47296 0.28447,1.18882 0.79218,2.12592 1.53044,2.82252 0.75229,0.66334 1.75238,0.99994 3.02605,0.99994 1.23351,0 2.38717,-0.37775 3.48498,-1.1388 1.07891,-0.76601 1.87945,-1.76203 2.37985,-2.98835 0.40039,-1.07959 0.60987,-3.44965 0.6185,-7.09739 l 0,-9.27367 c 0,-1.50766 0.33429,-2.64648 1.01281,-3.40723 0.68112,-0.7571 1.57042,-1.13879 2.64933,-1.13879 1.09268,0 1.97336,0.38301 2.63174,1.13879 0.65491,0.74661 0.98537,1.8818 0.98537,3.40723 l 0,22.08944 c 0,1.4616 -0.32183,2.54119 -0.96395,3.27001 -0.62267,0.72356 -1.44072,1.0924 -2.44116,1.0924 -0.99913,0 -1.83093,-0.37773 -2.48071,-1.1207 -0.64115,-0.7647 -0.96429,-1.8265 -0.96429,-3.18643"
       style="fill:#289554;fill-opacity:0.74583297;fill-rule:evenodd;stroke:none"
       id="path5647"
       inkscape:connector-curvature="0" />
    <path
       d="m 408.8096,707.64279 0,0.92297 c 1.29606,-1.76629 2.68923,-3.06173 4.21105,-3.88302 1.53907,-0.8341 3.29397,-1.24935 5.27116,-1.24935 1.92962,0 3.65325,0.43829 5.17124,1.30958 1.51668,0.87556 2.65308,2.11573 3.40032,3.71223 0.48375,0.92658 0.80054,1.93673 0.93781,3.01533 0.13989,1.07956 0.21714,2.45858 0.22315,4.13735 l 0,14.18457 c 0,1.53104 -0.34039,2.684 -1.02657,3.46777 -0.65839,0.78409 -1.52531,1.17104 -2.60039,1.17104 -1.08883,0 -1.96445,-0.39714 -2.64549,-1.19902 -0.676,-0.8022 -1.01673,-1.94626 -1.01673,-3.43979 l 0,-12.70916 c 0,-2.51386 -0.33908,-4.42264 -1.02143,-5.7503 -0.65491,-1.33822 -1.9858,-2.01144 -3.98537,-2.01144 -1.30468,0 -2.49439,0.40604 -3.56477,1.22732 -1.07508,0.79693 -1.85324,1.9137 -2.36095,3.32892 -0.34552,1.13484 -0.53513,3.26078 -0.53513,6.36363 l 0,9.55103 c 0,1.54881 -0.34424,2.71099 -1.03903,3.49475 -0.67216,0.76633 -1.56146,1.14406 -2.65282,1.14406 -1.05279,0 -1.91587,-0.39714 -2.60205,-1.19902 -0.67982,-0.8022 -1.01158,-1.94626 -1.01158,-3.43979 l 0,-22.03779 c 0,-1.44875 0.30076,-2.52834 0.90558,-3.23776 0.61494,-0.72354 1.44195,-1.08351 2.49952,-1.08351 0.63732,0 1.22011,0.15694 1.73767,0.47053 0.50648,0.31356 0.92536,0.78772 1.23473,1.4254 0.31679,0.63602 0.47262,1.40106 0.47262,2.31479"
       style="fill:#289554;fill-opacity:0.74583297;fill-rule:evenodd;stroke:none"
       id="path5649"
       inkscape:connector-curvature="0" />
    <path
       d="m 455.11966,716.46897 13.26385,0 c -0.18327,-2.60009 -0.8583,-4.54602 -2.03816,-5.83784 -1.16392,-1.30463 -2.69916,-1.94989 -4.60892,-1.94989 -1.82233,0 -3.32141,0.65448 -4.49875,1.97292 -1.16262,1.30993 -1.86124,3.24697 -2.11793,5.81481 m 14.30278,4.33016 -14.30278,0 c 0,1.73009 0.35022,3.26113 0.99904,4.57958 0.64985,1.32406 1.52539,2.32403 2.59185,2.98835 1.08762,0.6775 2.2863,1.01049 3.58716,1.01049 0.88067,0 1.67153,-0.11056 2.39229,-0.31885 0.72991,-0.21222 1.43334,-0.54884 2.1141,-0.99599 0.66867,-0.47053 1.30983,-0.9641 1.87119,-1.4899 0.5712,-0.51132 1.3133,-1.21187 2.22011,-2.11672 0.3781,-0.33168 0.91551,-0.50278 1.6103,-0.50278 0.74716,0 1.35321,0.21717 1.82233,0.65052 0.46137,0.42017 0.68966,1.02429 0.68966,1.81728 0,0.6775 -0.25067,1.49353 -0.76954,2.42537 -0.52878,0.90881 -1.30981,1.78932 -2.35746,2.65699 -1.04033,0.83413 -2.34849,1.53069 -3.94156,2.08843 -1.57381,0.55805 -3.38752,0.83936 -5.43046,0.83936 -4.70124,0 -8.35442,-1.3971 -10.95524,-4.19263 -2.60936,-2.78925 -3.91405,-6.57948 -3.91405,-11.36733 0,-2.24932 0.32316,-4.33939 0.95916,-6.25703 0.6463,-1.93181 1.59272,-3.59246 2.81761,-4.97148 1.22995,-1.37408 2.74672,-2.42534 4.55144,-3.15813 1.80507,-0.74263 3.80299,-1.11182 6.00593,-1.11182 2.84889,0 5.29859,0.63111 7.33292,1.89988 2.0567,1.24541 3.58714,2.86363 4.59994,4.8609 1.02153,1.9963 1.53045,4.02056 1.53045,6.08233 0,1.91764 -0.524,3.17194 -1.57896,3.74907 -1.04799,0.55806 -2.53471,0.83411 -4.44543,0.83411"
       style="fill:#289554;fill-opacity:0.74583297;fill-rule:evenodd;stroke:none"
       id="path5651"
       inkscape:connector-curvature="0" />
    <path
       d="m 505.93334,719.48692 0,10.13083 c 0,1.60538 -0.35025,2.81361 -1.05244,3.61186 -0.69358,0.80188 -1.6179,1.19771 -2.75534,1.19771 -1.11018,0 -2.0068,-0.39583 -2.71056,-1.19771 -0.66833,-0.79825 -1.0129,-2.00648 -1.0129,-3.61186 l 0,-12.14093 c 0,-1.92817 -0.067,-3.40358 -0.18326,-4.47297 -0.12839,-1.05655 -0.46782,-1.92422 -1.02274,-2.59647 -0.56136,-0.68242 -1.42827,-1.02823 -2.6219,-1.02823 -2.39735,0 -3.97631,0.85747 -4.74201,2.56815 -0.76091,1.71069 -1.13135,4.17353 -1.13135,7.36886 l 0,10.30159 c 0,1.58729 -0.34544,2.78531 -1.04033,3.61186 -0.68104,0.80188 -1.57416,1.19771 -2.71022,1.19771 -1.09268,0 -2.01334,-0.39583 -2.72564,-1.19771 -0.70219,-0.82655 -1.04259,-2.02457 -1.04259,-3.61186 l 0,-21.80286 c 0,-1.4343 0.31034,-2.52177 0.93659,-3.27363 0.64115,-0.74298 1.47679,-1.10656 2.51703,-1.10656 0.99913,0 1.83129,0.34581 2.48969,1.05128 0.66866,0.68638 1.01288,1.64651 1.01288,2.87778 l 0,0.72389 c 1.26984,-1.57347 2.63175,-2.73925 4.0737,-3.49111 1.45066,-0.73772 3.06446,-1.11182 4.82572,-1.11182 1.83991,0 3.41756,0.38301 4.73601,1.14406 1.31844,0.76074 2.41111,1.91896 3.27297,3.45887 1.22481,-1.55931 2.55187,-2.71589 3.96264,-3.45887 1.4072,-0.76105 2.97239,-1.14406 4.6935,-1.14406 1.9947,0 3.71963,0.4113 5.16036,1.23127 1.45188,0.8216 2.53568,1.99232 3.24162,3.51414 0.62364,1.37408 0.93433,3.54606 0.93433,6.51137 l 0,14.87625 c 0,1.60538 -0.35058,2.81361 -1.03902,3.61186 -0.69864,0.80188 -1.61546,1.19771 -2.75534,1.19771 -1.11027,0 -2.03049,-0.39583 -2.73775,-1.19771 -0.69489,-0.82655 -1.04895,-2.02457 -1.04895,-3.61186 l 0,-12.80559 c 0,-1.64125 -0.0661,-2.95609 -0.21715,-3.93829 -0.11714,-0.99599 -0.46771,-1.82122 -1.06523,-2.49478 -0.59359,-0.66827 -1.48184,-0.99994 -2.68052,-0.99994 -0.96403,0 -1.87946,0.29448 -2.75508,0.89464 -0.86333,0.58999 -1.53427,1.39219 -2.00845,2.39344 -0.52879,1.29018 -0.80046,3.56912 -0.80046,6.81969"
       style="fill:#289554;fill-opacity:0.74583297;fill-rule:evenodd;stroke:none"
       id="path5653"
       inkscape:connector-curvature="0" />
    <path
       d="m 551.22928,718.78509 c 0,-2.01143 -0.2944,-3.73132 -0.88921,-5.16035 -0.59743,-1.45238 -1.41582,-2.5606 -2.4686,-3.33021 -1.03398,-0.77916 -2.18021,-1.1658 -3.45877,-1.1658 -2.0155,0 -3.72312,0.82492 -5.10383,2.47539 -1.38324,1.66955 -2.06942,4.10015 -2.06942,7.32377 0,3.03473 0.68618,5.40482 2.06942,7.09608 1.36312,1.67877 3.06951,2.51419 5.10383,2.51419 1.2175,0 2.33639,-0.35997 3.38404,-1.08878 1.03013,-0.74661 1.8622,-1.8535 2.48201,-3.32497 0.62739,-1.47573 0.93686,-3.25057 0.95053,-5.33932 m -14.33405,-11.07681 0,0.91276 c 1.366,-1.76234 2.80411,-3.06173 4.2809,-3.87807 1.48167,-0.83905 3.15322,-1.2543 5.03781,-1.2543 2.25495,0 4.32053,0.59886 6.20897,1.80709 1.8973,1.2171 3.37889,2.98834 4.48028,5.30839 1.10155,2.32368 1.65394,5.08204 1.65394,8.27241 0,2.33782 -0.3167,4.50093 -0.96393,6.47517 -0.61886,1.95516 -1.48577,3.60168 -2.59569,4.9435 -1.10165,1.31353 -2.41975,2.3418 -3.94026,3.07061 -1.50047,0.71072 -3.10592,1.06542 -4.84331,1.06542 -2.08797,0 -3.84801,-0.44222 -5.27628,-1.31878 -1.41548,-0.87131 -2.76014,-2.15785 -4.04243,-3.85602 l 0,11.45092 c 0,3.34831 -1.17733,5.03597 -3.51242,5.03597 -1.37079,0 -2.291,-0.45244 -2.73775,-1.31484 -0.43907,-0.85749 -0.66352,-2.11705 -0.66352,-3.77641 l 0,-32.89875 c 0,-1.44744 0.30685,-2.52703 0.91159,-3.23645 0.59647,-0.72354 1.43689,-1.08351 2.48968,-1.08351 1.0304,0 1.87118,0.36357 2.52095,1.10655 0.6584,0.73278 0.99147,1.78932 0.99147,3.16834"
       style="fill:#289554;fill-opacity:0.74583297;fill-rule:evenodd;stroke:none"
       id="path5655"
       inkscape:connector-curvature="0" />
    <path
       d="m 564.42318,729.79114 0,-33.06459 c 0,-1.52675 0.32925,-2.6797 0.96909,-3.46248 0.66005,-0.78017 1.53557,-1.17599 2.64454,-1.17599 1.11506,0 2.00427,0.39582 2.6854,1.17599 0.67215,0.76469 1.00776,1.91239 1.00776,3.46248 l 0,33.06459 c 0,1.54913 -0.3506,2.71098 -1.03389,3.49507 -0.68626,0.766 -1.56694,1.14374 -2.65927,1.14374 -1.0703,0 -1.94582,-0.39714 -2.62181,-1.19902 -0.66005,-0.80221 -0.99182,-1.94594 -0.99182,-3.43979"
       style="fill:#289554;fill-opacity:0.74583297;fill-rule:evenodd;stroke:none"
       id="path5657"
       inkscape:connector-curvature="0" />
    <path
       d="m 585.3929,716.46897 13.26377,0 c -0.1884,-2.60009 -0.85796,-4.54602 -2.03303,-5.83784 -1.16382,-1.30463 -2.70298,-1.94989 -4.60893,-1.94989 -1.82709,0 -3.32653,0.65448 -4.50256,1.97292 -1.15879,1.30993 -1.87119,3.24697 -2.11925,5.81481 m 14.30409,4.33016 -14.30409,0 c 0,1.73009 0.35668,3.26113 0.9953,4.57958 0.65874,1.32406 1.51668,2.32403 2.5969,2.98835 1.08763,0.6775 2.28631,1.01049 3.59481,1.01049 0.87171,0 1.66389,-0.11056 2.37472,-0.31885 0.73983,-0.21222 1.44203,-0.54884 2.12786,-0.99599 0.66868,-0.47053 1.29606,-0.9641 1.86257,-1.4899 0.57468,-0.51132 1.30816,-1.21187 2.22488,-2.11672 0.36695,-0.33168 0.91553,-0.50278 1.60902,-0.50278 0.74723,0 1.3497,0.21717 1.82745,0.65052 0.46137,0.42017 0.68461,1.02429 0.68461,1.81728 0,0.6775 -0.24936,1.49353 -0.76962,2.42537 -0.52747,0.90881 -1.30468,1.78932 -2.35616,2.65699 -1.03998,0.83413 -2.3498,1.53069 -3.95018,2.08843 -1.55657,0.55805 -3.37506,0.83936 -5.42184,0.83936 -4.69733,0 -8.35442,-1.3971 -10.95646,-4.19263 -2.6091,-2.78925 -3.91377,-6.57948 -3.91377,-11.36733 0,-2.24932 0.32279,-4.33939 0.9601,-6.25703 0.64629,-1.93181 1.58288,-3.59246 2.81796,-4.97148 1.22481,-1.37408 2.75021,-2.42534 4.55014,-3.15813 1.80472,-0.74263 3.80429,-1.11182 6.00689,-1.11182 2.84757,0 5.29858,0.63111 7.33291,1.89988 2.0567,1.24541 3.58585,2.86363 4.60893,4.8609 1.01123,1.9963 1.53392,4.02056 1.53392,6.08233 0,1.91764 -0.53993,3.17194 -1.59272,3.74907 -1.05269,0.55806 -2.53341,0.83411 -4.44413,0.83411"
       style="fill:#289554;fill-opacity:0.74583297;fill-rule:evenodd;stroke:none"
       id="path5659"
       inkscape:connector-curvature="0" />
    <path
       d="m 631.91469,718.92789 c 0,-3.1078 -0.64976,-5.52822 -1.98066,-7.26191 -1.30467,-1.73405 -3.06089,-2.59648 -5.28107,-2.59648 -1.42445,0 -2.68027,0.39191 -3.76815,1.17107 -1.09241,0.76601 -1.93311,1.90481 -2.51686,3.4072 -0.59263,1.50898 -0.88825,3.26969 -0.88825,5.28012 0,1.99232 0.2944,3.74019 0.86211,5.22482 0.57861,1.48563 1.41931,2.62837 2.48072,3.43157 1.09268,0.78409 2.37976,1.17994 3.83043,1.17994 2.22018,0 3.9764,-0.87524 5.28107,-2.60534 1.3309,-1.74786 1.98066,-4.1502 1.98066,-7.23099 m 7.34319,0 c 0,2.26972 -0.33438,4.36734 -1.01802,6.2863 -0.67721,1.91765 -1.65875,3.56943 -2.94113,4.94714 -1.28717,1.37538 -2.82135,2.4306 -4.6124,3.17753 -1.78748,0.71961 -3.79053,1.08846 -6.03337,1.08846 -2.21149,0 -4.20209,-0.37774 -5.96213,-1.11544 -1.77346,-0.74693 -3.2991,-1.80841 -4.60867,-3.18644 -1.28743,-1.3971 -2.27244,-3.03472 -2.94495,-4.91125 -0.66353,-1.90085 -0.99147,-3.99849 -0.99147,-6.2863 0,-2.30459 0.34039,-4.41243 1.01386,-6.34061 0.68104,-1.91764 1.65786,-3.55494 2.92256,-4.91488 1.26488,-1.35596 2.809,-2.39836 4.60867,-3.13114 1.80507,-0.74298 3.79053,-1.10787 5.96213,-1.10787 2.22018,0 4.22829,0.36489 6.03337,1.10787 1.8034,0.75055 3.35144,1.80708 4.63348,3.18642 1.29222,1.37771 2.26165,3.02028 2.92005,4.9241 0.68112,1.90085 1.01802,3.9896 1.01802,6.27611"
       style="fill:#289554;fill-opacity:0.74583297;fill-rule:evenodd;stroke:none"
       id="path5661"
       inkscape:connector-curvature="0" />
  </g>
</svg>
